<?xml version="1.0" encoding="UTF-8"?>
<svg xmlns="http://www.w3.org/2000/svg" xmlns:xlink="http://www.w3.org/1999/xlink" width="119pt" height="119pt" viewBox="0 0 119 119" version="1.1">
<defs>
<clipPath id="clip1">
  <path d="M 0 0.773438 L 118.378906 0.773438 L 118.378906 119 L 0 119 Z M 0 0.773438 "/>
</clipPath>
</defs>
<g id="surface1">
<g clip-path="url(#clip1)" clip-rule="nonzero">
<path style=" stroke:none;fill-rule:nonzero;fill:rgb(65.06958%,6.855774%,10.211182%);fill-opacity:1;" d="M 44.957031 41.703125 C 45.496094 41.625 45.976562 41.402344 46.484375 41.222656 C 47.839844 40.757812 49.03125 40.015625 49.9375 38.824219 C 50.226562 38.4375 50.328125 38.007812 50.097656 37.59375 C 49.800781 37.046875 49.539062 36.445312 49.082031 36.03125 C 48.667969 35.667969 48.386719 35.234375 48.09375 34.765625 C 47.523438 33.890625 46.941406 33.027344 46.398438 32.128906 C 45.933594 31.355469 45.390625 31.226562 44.832031 31.734375 C 44.304688 32.207031 43.753906 32.660156 43.359375 33.277344 C 43.167969 33.582031 42.917969 33.839844 42.703125 34.132812 C 41.898438 35.230469 41.304688 36.457031 40.9375 37.785156 C 40.734375 38.507812 40.632812 39.253906 40.492188 39.996094 C 40.351562 40.746094 40.714844 41.316406 41.414062 41.484375 C 41.695312 41.546875 41.976562 41.609375 42.390625 41.695312 C 43.15625 41.992188 44.050781 41.832031 44.957031 41.703125 Z M 98.90625 40.816406 C 98.917969 39.984375 98.957031 39.144531 98.953125 38.304688 C 98.953125 37.949219 98.890625 37.609375 98.824219 37.265625 C 98.773438 36.980469 98.535156 36.914062 98.320312 36.976562 C 97.644531 37.179688 96.964844 37.378906 96.304688 37.640625 C 95.46875 37.972656 94.71875 38.480469 93.9375 38.917969 C 92.894531 39.515625 91.878906 40.160156 91 41.011719 C 90.195312 41.789062 89.480469 42.648438 89.09375 43.742188 C 88.84375 44.445312 88.753906 45.191406 88.621094 45.933594 C 88.433594 46.96875 88.503906 47.980469 88.90625 48.929688 C 89.328125 49.914062 89.757812 50.242188 90.769531 49.574219 C 91.5625 49.050781 92.367188 48.527344 93.179688 48.03125 C 94.351562 47.300781 95.488281 46.523438 96.523438 45.585938 C 97.664062 44.554688 98.453125 43.289062 98.785156 41.828125 C 98.824219 41.433594 98.898438 41.132812 98.90625 40.816406 Z M 96.675781 76.300781 C 96.417969 75.171875 95.710938 74.296875 94.980469 73.460938 C 94.359375 72.746094 93.566406 72.265625 92.839844 71.691406 C 92.027344 71.042969 91.125 70.558594 90.203125 70.136719 C 89.464844 69.800781 88.742188 69.433594 88.03125 69.039062 C 87.5 68.746094 86.984375 68.804688 86.789062 69.25 C 86.632812 69.621094 86.472656 69.992188 86.371094 70.386719 C 86.054688 71.605469 86.105469 72.835938 86.269531 74.058594 C 86.328125 74.539062 86.394531 75.027344 86.625 75.457031 C 87.230469 76.554688 88.074219 77.4375 89.027344 78.1875 C 90.148438 79.0625 91.386719 79.75 92.621094 80.425781 C 93.382812 80.84375 94.191406 81.144531 94.921875 81.636719 C 95.316406 81.894531 95.613281 81.789062 95.863281 81.363281 C 96.285156 80.644531 96.730469 79.925781 96.863281 79.113281 C 97.09375 78.121094 96.882812 77.199219 96.675781 76.300781 Z M 98.292969 48.90625 C 97.460938 49.0625 96.675781 49.359375 95.878906 49.632812 C 94.269531 50.1875 92.636719 50.691406 91.011719 51.207031 C 90.550781 51.355469 90.261719 51.699219 90.34375 52.078125 C 90.402344 52.332031 90.460938 52.59375 90.582031 52.835938 C 91.019531 53.695312 91.59375 54.441406 92.1875 55.175781 C 93.296875 56.546875 94.757812 57.265625 96.351562 57.667969 C 97.402344 57.929688 98.488281 57.777344 99.53125 57.464844 C 100.335938 57.222656 101.070312 56.808594 101.816406 56.441406 C 102.703125 56 103.621094 55.621094 104.425781 55.007812 C 104.707031 54.78125 104.945312 54.546875 104.78125 54.144531 C 104.5625 53.609375 104.367188 53.078125 104.023438 52.605469 C 103.421875 51.777344 102.835938 50.949219 102.058594 50.277344 C 101.347656 49.65625 100.554688 49.210938 99.683594 48.878906 C 99.226562 48.871094 98.765625 48.808594 98.292969 48.90625 Z M 97.492188 70.839844 C 98.632812 70.96875 99.714844 70.8125 100.710938 70.097656 C 101.945312 69.214844 102.914062 68.097656 103.738281 66.808594 C 103.953125 66.464844 104.15625 66.140625 104.25 65.722656 C 104.335938 65.292969 104.179688 65.074219 103.820312 64.984375 C 102.851562 64.742188 101.898438 64.460938 100.941406 64.1875 C 99.6875 63.835938 98.410156 63.601562 97.128906 63.335938 C 96.695312 63.246094 96.324219 62.917969 95.875 62.941406 C 95.222656 62.980469 94.621094 62.75 93.996094 62.660156 C 92.742188 62.484375 91.570312 62.75 90.515625 63.484375 C 89.558594 64.144531 88.839844 65.050781 88.210938 66.042969 C 87.769531 66.742188 87.910156 67.445312 88.628906 67.796875 C 89.636719 68.304688 90.640625 68.8125 91.695312 69.234375 C 93.078125 69.773438 94.515625 70.089844 95.878906 70.675781 C 96.40625 70.863281 96.957031 70.785156 97.492188 70.839844 Z M 31.210938 35.414062 C 31.828125 35.550781 32.492188 35.503906 33.136719 35.4375 C 34.199219 35.339844 35.269531 35.269531 36.320312 35.023438 C 36.859375 34.902344 37.398438 34.78125 37.917969 34.605469 C 38.746094 34.316406 39.550781 33.972656 40.351562 33.597656 C 41.730469 32.976562 43.0625 32.246094 44.273438 31.296875 C 44.832031 30.859375 45.335938 29.945312 44.804688 28.960938 C 44.53125 28.457031 44.3125 27.921875 44.101562 27.382812 C 43.542969 25.949219 43 24.507812 42.4375 23.085938 C 42.25 22.609375 41.886719 22.417969 41.398438 22.488281 C 40.519531 22.617188 39.78125 23.070312 39.074219 23.59375 C 38.804688 23.789062 38.546875 24 38.277344 24.195312 C 37.089844 25.0625 35.921875 25.945312 34.839844 26.941406 C 33.90625 27.804688 33.089844 28.765625 32.335938 29.816406 C 31.429688 31.058594 30.820312 32.417969 30.398438 33.902344 C 30.125 34.945312 30.453125 35.253906 31.210938 35.414062 Z M 14.699219 26.457031 C 15.304688 26.546875 15.898438 26.421875 16.503906 26.414062 C 17.441406 26.398438 18.359375 26.171875 19.289062 26.054688 C 20.320312 25.917969 21.324219 25.589844 22.328125 25.28125 C 23.074219 25.058594 23.785156 24.710938 24.5625 24.59375 C 25.238281 24.488281 25.785156 24.171875 25.996094 23.417969 C 26.136719 22.917969 26.105469 22.410156 26.003906 21.921875 C 25.800781 20.96875 25.570312 20.019531 25.46875 19.046875 C 25.402344 18.335938 25.328125 17.613281 25.179688 16.914062 C 24.917969 15.675781 24.84375 14.410156 24.789062 13.152344 C 24.75 12.257812 24.230469 11.90625 23.46875 12.320312 C 23.285156 12.421875 23.09375 12.511719 22.9375 12.644531 C 21.835938 13.585938 20.71875 14.519531 19.648438 15.496094 C 18.363281 16.675781 17.199219 17.996094 16.007812 19.273438 C 14.835938 20.53125 13.703125 21.835938 12.710938 23.269531 C 12.367188 23.761719 11.910156 24.179688 11.667969 24.738281 C 11.3125 25.558594 11.269531 26.117188 12.292969 26.230469 C 12.351562 26.234375 12.410156 26.257812 12.578125 26.292969 C 13.199219 26.523438 13.960938 26.335938 14.699219 26.457031 Z M 108.199219 28.851562 C 106.75 29.445312 105.328125 30.082031 104.1875 31.242188 C 103.953125 31.480469 103.695312 31.726562 103.605469 32.066406 C 103.394531 32.847656 103.175781 33.636719 103.433594 34.46875 C 103.605469 35.03125 103.726562 35.613281 103.871094 36.171875 C 104.09375 37.070312 104.296875 38.003906 104.289062 38.902344 C 104.273438 40.589844 103.644531 42.058594 102.355469 43.148438 C 101.617188 43.777344 100.839844 44.335938 100.023438 44.828125 C 99.171875 45.335938 98.339844 45.890625 97.429688 46.285156 C 96.949219 46.492188 96.769531 46.933594 96.9375 47.3125 C 97.078125 47.640625 97.546875 47.726562 97.996094 47.53125 C 99.769531 46.75 101.546875 45.976562 103.492188 45.785156 C 104.480469 45.6875 105.363281 45.9375 106.082031 46.683594 C 106.699219 47.320312 107.03125 48.15625 107.382812 48.964844 C 107.679688 49.667969 107.996094 50.351562 108.472656 50.929688 C 109.101562 51.707031 109.859375 52.199219 110.863281 52.167969 C 111.917969 52.140625 112.925781 51.851562 113.886719 51.394531 C 114.4375 51.136719 114.976562 50.8125 115.402344 50.328125 C 116.171875 49.441406 116.167969 48.363281 115.945312 47.308594 C 115.742188 46.355469 115.394531 45.421875 115.105469 44.480469 C 115.058594 44.335938 115.035156 44.128906 114.828125 44.148438 C 114.652344 44.171875 114.609375 44.351562 114.5625 44.511719 C 114.425781 45.03125 114.222656 45.507812 113.890625 45.941406 C 113.425781 46.554688 112.832031 46.972656 112.179688 47.269531 C 110.90625 47.867188 109.613281 48.15625 108.3125 47.285156 C 107.59375 46.804688 107.113281 45.988281 107.324219 45.25 C 107.707031 43.898438 108.558594 42.941406 109.785156 42.335938 C 110.785156 41.855469 111.765625 41.335938 112.894531 41.191406 C 114.035156 41.054688 115.128906 40.953125 116.015625 41.960938 C 116.277344 42.25 116.488281 42.578125 116.761719 42.855469 C 116.886719 42.984375 117.035156 43.058594 117.207031 42.960938 C 117.367188 42.871094 117.378906 42.699219 117.339844 42.539062 C 117.261719 42.195312 117.175781 41.871094 117.074219 41.542969 C 116.8125 40.683594 116.59375 39.820312 116.222656 38.996094 C 115.96875 38.429688 115.820312 37.800781 115.566406 37.226562 C 115.386719 36.800781 115.074219 36.503906 114.667969 36.304688 C 113.582031 35.773438 112.503906 35.964844 111.429688 36.300781 C 110.019531 36.761719 108.628906 37.273438 107.339844 38.054688 C 106.984375 38.261719 106.617188 38.453125 106.253906 38.644531 C 105.984375 38.785156 105.78125 38.707031 105.632812 38.445312 C 105.40625 38.050781 105.453125 37.617188 105.539062 37.21875 C 105.886719 35.550781 106.898438 34.445312 108.308594 33.683594 C 108.949219 33.339844 109.648438 33.21875 110.332031 33.054688 C 110.917969 32.921875 111.480469 32.988281 112.046875 33.21875 C 112.488281 33.414062 112.804688 33.75 113.136719 34.089844 C 113.304688 34.257812 113.523438 34.558594 113.785156 34.34375 C 114.007812 34.167969 113.949219 33.839844 113.828125 33.570312 C 113.820312 33.550781 113.8125 33.535156 113.804688 33.511719 C 113.320312 32.566406 112.847656 31.613281 112.351562 30.683594 C 111.832031 29.6875 111.136719 28.914062 109.953125 28.839844 C 109.382812 28.585938 108.773438 28.621094 108.199219 28.851562 Z M 116.023438 78.613281 C 116.097656 78.097656 116.089844 77.585938 115.960938 77.078125 C 115.6875 76.015625 114.882812 75.4375 114.039062 74.933594 C 113.207031 74.433594 112.273438 74.167969 111.378906 73.808594 C 110.6875 73.53125 109.972656 73.457031 109.246094 73.46875 C 108.984375 73.472656 108.6875 73.535156 108.539062 73.28125 C 108.378906 73.011719 108.480469 72.691406 108.636719 72.453125 C 108.941406 71.988281 109.328125 71.59375 109.820312 71.355469 C 110.578125 70.984375 111.398438 71.015625 112.203125 71.085938 C 113.179688 71.171875 114.089844 71.5625 114.96875 72.011719 C 116.027344 72.550781 116.726562 73.414062 116.902344 74.683594 C 116.929688 74.917969 116.945312 75.21875 117.207031 75.257812 C 117.5 75.300781 117.53125 74.957031 117.652344 74.761719 C 117.6875 74.699219 117.683594 74.609375 117.710938 74.539062 C 117.824219 74.179688 117.9375 73.804688 118.054688 73.441406 C 118.417969 72.371094 118.492188 71.261719 118.203125 70.183594 C 117.855469 68.847656 116.957031 67.914062 115.820312 67.277344 C 114.570312 66.582031 113.214844 66.285156 111.808594 66.558594 C 109.789062 66.957031 108.628906 68.476562 107.71875 70.242188 C 107.320312 71.011719 106.9375 71.800781 106.511719 72.5625 C 106.171875 73.1875 105.636719 73.503906 104.949219 73.621094 C 104.378906 73.71875 103.808594 73.722656 103.238281 73.699219 C 102.96875 73.695312 102.695312 73.773438 102.453125 73.621094 C 102.210938 73.460938 101.941406 73.414062 101.671875 73.347656 C 100.992188 73.183594 100.3125 73.03125 99.644531 72.835938 C 99.113281 72.675781 98.585938 72.488281 98.082031 72.257812 C 97.585938 72.039062 97.1875 72.058594 96.976562 72.394531 C 96.738281 72.785156 96.855469 73.183594 97.316406 73.539062 C 97.40625 73.609375 97.503906 73.667969 97.605469 73.710938 C 98.425781 74.074219 99.269531 74.375 100.03125 74.859375 C 101.121094 75.550781 102.183594 76.261719 103.015625 77.308594 C 103.644531 78.09375 103.851562 78.953125 103.503906 79.949219 C 103.398438 80.253906 103.234375 80.523438 103.113281 80.824219 C 102.644531 81.933594 102.285156 83.085938 101.941406 84.25 C 101.722656 85.003906 101.539062 85.75 101.652344 86.582031 C 101.945312 88.808594 103.324219 90.015625 105.136719 90.855469 C 105.390625 90.96875 105.667969 90.871094 105.925781 90.957031 C 107.3125 91.429688 108.414062 91.042969 109.253906 89.871094 C 110.203125 88.535156 110.761719 87.050781 111.039062 85.421875 C 111.078125 85.195312 111.273438 84.859375 111.019531 84.71875 C 110.761719 84.578125 110.523438 84.851562 110.347656 85.066406 C 110.070312 85.394531 109.726562 85.621094 109.335938 85.761719 C 108.242188 86.15625 107.160156 86.066406 106.078125 85.722656 C 105.054688 85.40625 104.0625 84.199219 104.039062 83.136719 C 103.976562 80.566406 105.945312 79.039062 108.191406 79.328125 C 109.304688 79.46875 110.28125 80.054688 111.261719 80.582031 C 112.101562 81.042969 112.75 81.683594 112.984375 82.6875 C 113.085938 83.132812 113.054688 83.582031 113.046875 84.042969 C 113.046875 84.257812 113.003906 84.539062 113.265625 84.617188 C 113.511719 84.691406 113.695312 84.484375 113.820312 84.289062 C 114.007812 84 114.160156 83.703125 114.320312 83.402344 C 114.984375 82.179688 115.648438 80.949219 115.847656 79.527344 C 115.90625 79.222656 115.980469 78.921875 116.023438 78.613281 Z M 91.179688 27.078125 C 92.199219 27.21875 93.210938 27.214844 94.171875 26.808594 C 95.1875 26.371094 96.027344 25.640625 96.738281 24.757812 C 96.804688 24.671875 96.855469 24.582031 96.789062 24.464844 C 96.714844 24.355469 96.605469 24.402344 96.507812 24.425781 C 95.71875 24.675781 94.90625 24.863281 94.09375 24.804688 C 92.277344 24.671875 90.648438 23.945312 89.15625 22.875 C 87.941406 22.003906 86.75 21.097656 85.546875 20.207031 C 85.417969 20.105469 85.265625 20.03125 85.324219 19.835938 C 85.375 19.65625 85.53125 19.660156 85.675781 19.644531 C 86.816406 19.574219 87.894531 19.871094 88.972656 20.179688 C 89.632812 20.359375 90.308594 20.460938 90.949219 20.738281 C 91.238281 20.863281 91.601562 20.769531 91.917969 20.84375 C 92.742188 21.042969 93.582031 21.1875 94.402344 21.429688 C 94.828125 21.554688 95.300781 21.707031 95.785156 21.695312 C 96.324219 21.679688 96.785156 22.035156 97.308594 22.152344 C 98.5 22.425781 99.597656 22.871094 100.007812 24.273438 C 100.066406 24.46875 100.242188 24.488281 100.417969 24.394531 C 100.609375 24.292969 100.746094 24.132812 100.808594 23.921875 C 101.035156 23.152344 101.355469 22.40625 101.421875 21.597656 C 101.453125 21.179688 101.46875 20.769531 101.363281 20.355469 C 101.121094 19.421875 100.511719 18.839844 99.785156 18.296875 C 98.726562 17.503906 97.554688 16.964844 96.359375 16.472656 C 95.933594 16.300781 95.546875 16.328125 95.140625 16.613281 C 94.113281 17.335938 93.09375 18.109375 91.886719 18.46875 C 90.550781 18.878906 89.277344 18.703125 88.078125 17.980469 C 86.714844 17.160156 85.765625 15.933594 85.050781 14.484375 C 84.742188 13.847656 84.875 13.527344 85.535156 13.398438 C 86.601562 13.1875 87.675781 13.265625 88.738281 13.425781 C 89.128906 13.480469 89.371094 13.753906 89.402344 14.164062 C 89.445312 14.851562 89.484375 15.535156 89.515625 16.214844 C 89.546875 16.726562 89.605469 17.21875 89.789062 17.6875 C 89.90625 17.992188 90.132812 18.070312 90.410156 17.898438 C 90.566406 17.796875 90.707031 17.675781 90.835938 17.535156 C 91.472656 16.867188 91.949219 16.070312 92.425781 15.289062 C 92.746094 14.753906 93.03125 14.648438 93.585938 14.902344 C 93.929688 15.050781 94.246094 15.246094 94.570312 15.421875 C 94.753906 15.519531 94.941406 15.566406 95.125 15.4375 C 95.296875 15.308594 95.261719 15.128906 95.242188 14.941406 C 95.148438 14.066406 94.878906 13.242188 94.539062 12.445312 C 94.257812 11.808594 93.960938 11.15625 93.390625 10.722656 C 92.5 10.046875 91.488281 9.640625 90.414062 9.429688 C 89.492188 9.253906 88.566406 9.089844 87.640625 8.964844 C 86.769531 8.847656 85.886719 8.695312 85.011719 8.730469 C 83.972656 8.769531 82.957031 8.550781 81.921875 8.574219 C 81.1875 8.589844 80.453125 8.480469 79.722656 8.417969 C 78.4375 8.3125 77.175781 8.121094 75.964844 7.597656 C 74.78125 7.078125 73.753906 6.300781 72.71875 5.539062 C 72.421875 5.320312 72.296875 5.355469 72.210938 5.734375 C 72.1875 5.832031 72.171875 5.941406 72.171875 6.050781 C 72.199219 7.328125 72.589844 8.523438 73.046875 9.679688 C 73.503906 10.84375 74.15625 11.898438 74.804688 12.960938 C 75.085938 13.417969 75 13.855469 74.558594 14.117188 C 73.789062 14.589844 73.144531 15.222656 72.539062 15.894531 C 71.648438 16.859375 71.015625 18.046875 70.320312 19.175781 C 69.792969 20.019531 69.269531 20.863281 68.882812 21.792969 C 68.257812 23.3125 67.539062 24.78125 66.691406 26.175781 C 66.449219 26.574219 66.242188 27.015625 65.878906 27.296875 C 65.019531 27.960938 64.144531 28.597656 63.011719 28.671875 C 62.429688 28.707031 62.203125 29.285156 62.511719 29.808594 C 62.597656 29.941406 62.710938 30.0625 62.800781 30.191406 C 63.097656 30.59375 63.5 30.882812 63.886719 31.183594 C 65.042969 32.066406 66.261719 32.703125 67.785156 32.375 C 68.886719 32.148438 69.734375 31.640625 70.222656 30.554688 C 70.300781 30.375 70.40625 30.128906 70.640625 30.214844 C 70.871094 30.300781 70.78125 30.550781 70.746094 30.730469 C 70.628906 31.316406 70.460938 31.902344 70.375 32.488281 C 70.183594 33.777344 70.375 35.019531 70.761719 36.253906 C 71.324219 38.054688 72.460938 39.117188 74.265625 39.402344 C 75.972656 39.675781 77.820312 38.320312 78.261719 36.640625 C 78.320312 36.402344 78.40625 36.171875 78.511719 35.945312 C 78.742188 35.410156 78.839844 34.835938 78.871094 34.253906 C 78.902344 33.722656 78.921875 33.183594 79.089844 32.671875 C 79.140625 32.527344 79.148438 32.3125 79.34375 32.3125 C 79.53125 32.316406 79.566406 32.511719 79.609375 32.664062 C 79.796875 33.320312 79.898438 34.007812 80.1875 34.625 C 80.449219 35.199219 80.675781 35.777344 81.09375 36.261719 C 81.796875 37.09375 82.648438 37.714844 83.542969 38.277344 C 84.375 38.820312 85.242188 39.285156 86.261719 39.273438 C 86.511719 39.261719 86.773438 39.246094 86.871094 38.949219 C 86.984375 38.625 87.03125 38.316406 86.75 38.023438 C 85.65625 36.871094 85.019531 35.449219 84.597656 33.921875 C 84.144531 32.296875 84.144531 30.59375 84.085938 28.910156 C 84.066406 28.34375 84.078125 27.769531 84.105469 27.199219 C 84.132812 26.554688 84.167969 25.898438 84.257812 25.25 C 84.320312 24.796875 84.695312 24.53125 85.054688 24.660156 C 85.648438 24.875 86.242188 25.09375 86.789062 25.394531 C 88.035156 26.085938 89.324219 26.640625 90.699219 26.972656 C 90.855469 27.007812 91.015625 27.050781 91.179688 27.078125 Z M 60.851562 79.753906 C 59.964844 79.808594 59.078125 79.859375 58.210938 80.121094 C 57.398438 80.363281 56.851562 81 56.792969 81.820312 C 56.75 82.375 56.796875 82.925781 56.996094 83.441406 C 57.710938 85.273438 58.472656 87.097656 59.53125 88.75 C 60.042969 89.550781 60.632812 90.300781 61.257812 91.007812 C 61.933594 91.757812 62.628906 92.5 63.40625 93.152344 C 63.851562 93.515625 64.339844 93.804688 64.8125 94.128906 C 65.753906 94.78125 66.71875 95.421875 67.777344 95.871094 C 68.503906 96.179688 69.261719 96.410156 70.039062 96.5625 C 70.53125 96.664062 70.738281 97.039062 70.535156 97.429688 C 70.246094 97.949219 69.96875 98.472656 69.625 98.953125 C 68.351562 100.722656 66.921875 102.347656 65.335938 103.8125 C 64.695312 104.398438 63.949219 104.839844 63.347656 105.472656 C 62.589844 106.277344 62.804688 107.546875 63.792969 108.003906 C 63.898438 108.046875 64.003906 108.101562 64.09375 108.160156 C 65.058594 108.816406 66.132812 109.195312 67.1875 109.613281 C 67.851562 109.875 68.542969 110.023438 69.226562 110.207031 C 69.71875 110.332031 70.191406 110.542969 70.71875 110.597656 C 71.386719 110.664062 72.078125 110.699219 72.710938 110.972656 C 73.160156 111.160156 73.355469 111.507812 73.222656 112 C 73.097656 112.5 72.925781 112.980469 72.453125 113.269531 C 72.285156 113.371094 72.121094 113.519531 72.148438 113.757812 C 72.175781 113.992188 72.375 114.058594 72.558594 114.144531 C 73.34375 114.480469 74.15625 114.355469 74.957031 114.320312 C 76.320312 114.253906 76.886719 113.785156 77.523438 112.269531 C 77.742188 111.753906 78.046875 111.367188 78.613281 111.320312 C 79.011719 111.289062 79.410156 111.277344 79.8125 111.28125 C 80.332031 111.296875 80.660156 111.582031 80.820312 112.105469 C 81.074219 112.925781 80.78125 113.878906 80.105469 114.355469 C 79.929688 114.476562 79.691406 114.582031 79.746094 114.859375 C 79.792969 115.136719 80.058594 115.125 80.265625 115.175781 C 80.714844 115.300781 81.175781 115.214844 81.636719 115.265625 C 83.492188 115.496094 85.613281 113.964844 85.265625 111.65625 C 85.199219 111.207031 85.351562 110.867188 85.707031 110.691406 C 86.175781 110.457031 86.699219 110.1875 87.21875 110.523438 C 87.722656 110.847656 88.027344 111.347656 88.074219 111.980469 C 88.132812 112.757812 87.996094 113.5 87.53125 114.136719 C 87.425781 114.277344 87.339844 114.441406 87.4375 114.613281 C 87.53125 114.769531 87.6875 114.714844 87.832031 114.699219 C 88.285156 114.664062 88.714844 114.523438 89.140625 114.378906 C 90.3125 114 91.265625 113.355469 91.832031 112.167969 C 92.273438 111.242188 92.378906 110.292969 92.132812 109.289062 C 92.066406 109 92.042969 108.710938 92.28125 108.472656 C 92.683594 108.074219 93.46875 108.039062 93.890625 108.421875 C 94.410156 108.882812 94.558594 109.523438 94.5 110.191406 C 94.457031 110.753906 94.363281 111.324219 94.074219 111.828125 C 94 111.964844 93.988281 112.140625 94.109375 112.285156 C 94.230469 112.425781 94.371094 112.367188 94.503906 112.324219 C 94.964844 112.164062 95.304688 111.8125 95.714844 111.554688 C 96.933594 110.792969 97.6875 109.675781 97.984375 108.195312 C 98.15625 107.355469 98.078125 106.503906 98.238281 105.664062 C 98.304688 105.3125 98.171875 104.941406 97.90625 104.660156 C 97.554688 104.300781 97.15625 104.007812 96.722656 103.75 C 95.742188 103.179688 94.910156 102.324219 93.808594 101.957031 C 93.210938 101.753906 92.59375 101.734375 92.011719 101.984375 C 91.292969 102.292969 90.605469 102.683594 89.914062 103.042969 C 89.191406 103.425781 88.425781 103.703125 87.679688 104.027344 C 86.6875 104.464844 85.707031 104.941406 84.679688 105.269531 C 82.980469 105.800781 81.28125 106.382812 79.503906 106.585938 C 78.738281 106.671875 77.988281 106.839844 77.222656 106.867188 C 76.207031 106.910156 75.195312 107.011719 74.164062 106.980469 C 73.273438 106.945312 72.421875 106.769531 71.5625 106.5625 C 71.394531 106.523438 71.21875 106.441406 71.214844 106.214844 C 71.214844 105.964844 71.378906 105.839844 71.5625 105.765625 C 73.046875 105.121094 74.46875 104.359375 75.808594 103.414062 C 77.640625 102.128906 79.414062 100.800781 80.996094 99.191406 C 81.5625 98.617188 82.164062 98.074219 82.707031 97.472656 C 84.296875 95.691406 85.46875 93.609375 86.539062 91.46875 C 86.957031 90.632812 86.859375 90.230469 86.132812 89.667969 C 86.003906 89.574219 85.886719 89.453125 85.753906 89.351562 C 84.335938 88.234375 82.824219 87.273438 81.296875 86.335938 C 80.097656 85.605469 78.863281 84.945312 77.597656 84.339844 C 76.574219 83.851562 75.53125 83.421875 74.46875 83.03125 C 73.171875 82.546875 71.894531 82.007812 70.601562 81.511719 C 69.175781 80.960938 67.679688 80.671875 66.332031 80.308594 C 64.441406 79.941406 62.660156 79.660156 60.851562 79.753906 Z M 60.175781 35.777344 C 59.804688 35.742188 59.632812 36.019531 59.484375 36.328125 C 59.074219 37.183594 58.449219 37.835938 57.722656 38.394531 C 57.023438 38.941406 56.253906 39.3125 55.421875 39.574219 C 54.722656 39.792969 54.03125 39.996094 53.292969 39.941406 C 52.9375 39.914062 52.578125 39.910156 52.222656 39.949219 C 51.925781 39.984375 51.820312 40.171875 52.023438 40.441406 C 52.226562 40.726562 52.4375 41.007812 52.648438 41.28125 C 53.175781 41.9375 53.832031 42.46875 54.375 43.105469 C 54.964844 43.800781 55.609375 44.417969 56.277344 45.015625 C 56.5625 45.273438 56.742188 45.214844 56.824219 44.835938 C 57.007812 43.984375 57.15625 43.132812 57.328125 42.273438 C 57.464844 41.578125 57.628906 40.898438 57.980469 40.273438 C 58.367188 39.589844 58.761719 38.902344 59.449219 38.5 C 59.886719 38.242188 60.363281 38.0625 60.796875 37.800781 C 61.511719 37.382812 61.460938 37.144531 61.074219 36.683594 C 60.949219 36.546875 60.875 36.355469 60.757812 36.214844 C 60.605469 36.023438 60.429688 35.855469 60.175781 35.777344 Z M 64.601562 13.449219 C 64.433594 14.277344 64.34375 15.140625 64.046875 15.929688 C 63.78125 16.644531 63.535156 17.371094 63.195312 18.0625 C 62.878906 18.703125 62.640625 19.378906 62.351562 20.027344 C 62.113281 20.554688 61.882812 21.074219 61.609375 21.578125 C 61.1875 22.351562 60.855469 23.179688 60.417969 23.941406 C 60.25 24.234375 60.113281 24.546875 59.949219 24.847656 C 59.558594 25.546875 59.707031 26.261719 59.929688 26.964844 C 60.316406 28.199219 60.902344 29.328125 61.628906 30.378906 C 62.59375 31.757812 63.648438 33.039062 65.105469 33.859375 C 66.089844 34.417969 67.148438 34.792969 68.292969 34.765625 C 68.605469 34.757812 68.90625 34.824219 69.210938 34.875 C 69.519531 34.925781 69.652344 35.105469 69.707031 35.4375 C 69.800781 36.023438 69.785156 36.609375 69.785156 37.199219 C 69.800781 38.925781 70.300781 40.488281 71.351562 41.816406 C 71.902344 42.503906 72.699219 42.773438 73.539062 42.832031 C 74.949219 42.929688 76.007812 42.261719 76.957031 41.203125 C 77.875 40.171875 78.585938 39.035156 79.070312 37.726562 C 79.28125 37.132812 79.589844 37.058594 79.980469 37.515625 C 80.746094 38.40625 81.644531 39.113281 82.628906 39.691406 C 83.460938 40.1875 84.324219 40.636719 85.253906 40.902344 C 86.125 41.152344 86.339844 41.480469 86.160156 42.421875 C 85.8125 44.265625 85.957031 46.09375 86.300781 47.921875 C 86.628906 49.660156 87.324219 51.25 88.128906 52.789062 C 88.976562 54.410156 90.164062 55.730469 91.488281 56.941406 C 91.933594 57.34375 92.441406 57.671875 92.859375 58.117188 C 93.238281 58.53125 93.414062 59.183594 93.234375 59.726562 C 93.160156 59.945312 92.992188 60.019531 92.796875 60.085938 C 92.132812 60.304688 91.449219 60.429688 90.785156 60.660156 C 89.542969 61.097656 88.613281 61.953125 87.792969 62.984375 C 87.308594 63.597656 86.808594 64.195312 86.394531 64.859375 C 85.539062 66.234375 84.824219 67.667969 84.394531 69.261719 C 84.121094 70.273438 83.851562 71.289062 83.898438 72.363281 C 83.921875 72.9375 83.992188 73.519531 84.003906 74.09375 C 84.015625 75.085938 83.667969 75.949219 83.023438 76.652344 C 82.683594 77.019531 82.296875 76.988281 81.910156 76.683594 C 81.160156 76.078125 80.453125 75.4375 79.785156 74.734375 C 79.046875 73.957031 78.699219 73.015625 78.503906 71.976562 C 78.425781 71.5625 78.347656 71.152344 78.230469 70.753906 C 78.128906 70.441406 77.945312 70.160156 77.578125 70.167969 C 77.226562 70.167969 77.03125 70.421875 76.886719 70.71875 C 76.492188 71.515625 76.164062 72.367188 75.707031 73.121094 C 75.1875 73.972656 74.601562 74.773438 73.855469 75.433594 C 73.132812 76.066406 72.382812 76.65625 71.554688 77.136719 C 70.261719 77.878906 68.835938 78.238281 67.410156 78.492188 C 65.941406 78.75 64.433594 78.820312 62.917969 78.671875 C 61.515625 78.53125 60.15625 78.164062 58.789062 77.855469 C 58.316406 77.742188 57.824219 77.585938 57.34375 77.480469 C 55.792969 77.164062 54.246094 76.777344 52.648438 76.742188 C 52.050781 76.734375 51.464844 76.605469 50.875 76.773438 C 50.488281 76.886719 50.386719 77.183594 50.636719 77.519531 C 51.132812 78.207031 51.671875 78.859375 52.246094 79.472656 C 53.035156 80.316406 53.542969 81.375 54.082031 82.402344 C 54.957031 84.078125 55.550781 85.875 56.128906 87.675781 C 56.734375 89.554688 57.164062 91.488281 57.433594 93.464844 C 57.628906 94.867188 57.765625 96.277344 57.734375 97.691406 C 57.703125 99.125 57.792969 100.558594 57.730469 102 C 57.691406 102.8125 57.65625 103.644531 57.46875 104.386719 C 57.253906 105.246094 57.480469 106.089844 57.230469 106.921875 C 57.003906 107.675781 56.59375 108.078125 55.851562 107.921875 C 53.59375 107.445312 51.3125 107.058594 49.09375 106.394531 C 47.941406 106.046875 46.757812 105.757812 45.644531 105.273438 C 44.527344 104.789062 43.378906 104.417969 42.257812 103.957031 C 41.449219 103.625 40.691406 103.1875 39.933594 102.730469 C 38.882812 102.085938 37.828125 101.445312 36.867188 100.667969 C 35.035156 99.1875 33.355469 97.550781 31.992188 95.5625 C 31.625 95.023438 31.148438 94.574219 30.71875 94.082031 C 30.621094 93.984375 30.511719 93.824219 30.347656 93.925781 C 30.179688 94.027344 30.207031 94.230469 30.253906 94.394531 C 30.441406 94.988281 30.613281 95.601562 30.835938 96.191406 C 31.238281 97.242188 31.6875 98.273438 32.195312 99.289062 C 32.894531 100.65625 33.71875 101.933594 34.613281 103.152344 C 35.515625 104.402344 36.539062 105.527344 37.546875 106.671875 C 38.589844 107.84375 39.804688 108.808594 41.035156 109.753906 C 42.007812 110.5 43.054688 111.09375 44.101562 111.6875 C 44.804688 112.082031 44.996094 112.285156 44.664062 113.375 C 44.515625 113.847656 44.386719 114.332031 44.253906 114.800781 C 44.078125 115.441406 43.855469 116.070312 43.648438 116.699219 C 43.453125 117.285156 43.035156 117.75 42.464844 118.035156 C 41.859375 118.339844 41.214844 118.578125 40.585938 118.820312 C 39.613281 119.207031 38.71875 118.914062 37.839844 118.464844 C 37.160156 118.117188 36.46875 117.785156 35.78125 117.460938 C 35.042969 117.113281 34.457031 116.53125 33.792969 116.074219 C 33.621094 115.957031 33.492188 115.742188 33.601562 115.511719 C 33.703125 115.296875 33.914062 115.367188 34.097656 115.398438 C 34.714844 115.507812 35.292969 115.792969 35.925781 115.8125 C 36.527344 115.828125 37.03125 115.582031 37.417969 115.117188 C 37.714844 114.769531 37.691406 114.386719 37.375 114.066406 C 36.867188 113.5625 36.335938 113.089844 35.851562 112.570312 C 35.429688 112.117188 34.976562 112.183594 34.511719 112.394531 C 33.832031 112.695312 33.125 112.917969 32.414062 113.003906 C 31.351562 113.128906 30.324219 113.0625 29.550781 112.054688 C 28.726562 110.96875 27.828125 109.9375 27.191406 108.691406 C 27.085938 108.480469 26.996094 108.242188 27.183594 108.078125 C 27.378906 107.898438 27.546875 108.105469 27.6875 108.226562 C 28.769531 109.171875 29.929688 109.304688 31.164062 108.628906 C 31.6875 108.339844 31.828125 107.914062 31.519531 107.371094 C 31.242188 106.871094 30.90625 106.410156 30.480469 106.019531 C 30.230469 105.800781 29.9375 105.738281 29.617188 105.808594 C 28.316406 106.078125 27.082031 105.851562 25.878906 105.300781 C 25.480469 105.117188 25.226562 104.800781 25.042969 104.398438 C 24.492188 103.214844 24.003906 102.011719 23.742188 100.71875 C 23.683594 100.410156 23.660156 100.101562 23.671875 99.789062 C 23.679688 99.679688 23.722656 99.578125 23.839844 99.542969 C 23.945312 99.515625 24.011719 99.578125 24.078125 99.652344 C 24.152344 99.746094 24.238281 99.824219 24.292969 99.921875 C 24.878906 101.035156 26.421875 101.210938 27.382812 100.96875 C 27.734375 100.875 27.945312 100.527344 27.863281 100.109375 C 27.730469 99.390625 27.460938 98.707031 27.160156 98.050781 C 26.960938 97.613281 26.488281 97.527344 26.085938 97.449219 C 25.046875 97.25 24.199219 96.726562 23.464844 95.949219 C 23.054688 95.515625 22.984375 94.917969 22.957031 94.355469 C 22.90625 93.304688 22.921875 92.257812 23.207031 91.222656 C 23.257812 91.042969 23.277344 90.800781 23.503906 90.785156 C 23.730469 90.769531 23.789062 91.003906 23.847656 91.179688 C 24.058594 91.824219 24.464844 92.203125 25.125 92.269531 C 25.496094 92.300781 25.761719 92.117188 25.789062 91.722656 C 25.820312 91.269531 25.863281 90.816406 25.746094 90.351562 C 25.613281 89.863281 25.621094 89.332031 25.617188 88.816406 C 25.613281 87.648438 25.609375 86.480469 25.679688 85.3125 C 25.714844 84.71875 25.710938 84.109375 25.839844 83.511719 C 25.921875 83.132812 26.09375 82.859375 26.460938 82.765625 C 26.90625 82.65625 27.300781 82.742188 27.566406 83.171875 C 28.066406 83.988281 28.515625 84.832031 29.054688 85.613281 C 29.914062 86.863281 30.921875 87.972656 32.0625 88.953125 C 32.53125 89.351562 32.964844 89.8125 33.484375 90.109375 C 34.253906 90.546875 34.996094 91.027344 35.804688 91.398438 C 37.039062 91.96875 38.328125 92.339844 39.59375 92.777344 C 40.695312 93.15625 41.84375 93.367188 42.988281 93.53125 C 43.449219 93.59375 43.925781 93.546875 44.398438 93.523438 C 44.5625 93.519531 44.769531 93.5 44.808594 93.265625 C 44.847656 93.03125 44.675781 92.953125 44.519531 92.863281 C 43.839844 92.464844 43.117188 92.15625 42.441406 91.773438 C 41.351562 91.152344 40.316406 90.410156 39.332031 89.605469 C 38.667969 89.070312 37.988281 88.554688 37.3125 88.03125 C 36.195312 87.1875 35.25 86.144531 34.355469 85.058594 C 33.351562 83.847656 32.417969 82.589844 31.675781 81.175781 C 30.886719 79.679688 30.53125 78.078125 30.492188 76.363281 C 30.453125 75.039062 30.675781 73.753906 31.035156 72.492188 C 31.160156 72.074219 31.359375 71.671875 31.5 71.273438 C 31.746094 70.554688 31.582031 70.285156 30.867188 70.269531 C 29.609375 70.25 28.355469 70.121094 27.132812 69.8125 C 25.285156 69.347656 23.886719 68.269531 23.195312 66.382812 C 22.800781 65.3125 22.820312 64.164062 23.171875 63.054688 C 23.816406 61.058594 25.0625 59.605469 26.828125 58.609375 C 27.894531 58.011719 28.953125 57.421875 30.082031 56.941406 C 31.179688 56.480469 32.289062 56.019531 33.335938 55.445312 C 34.535156 54.785156 35.8125 54.242188 36.792969 53.199219 C 38.007812 51.914062 38.582031 50.40625 38.03125 48.613281 C 37.652344 47.378906 36.742188 46.703125 35.550781 46.421875 C 35.339844 46.378906 35.140625 46.308594 34.949219 46.203125 C 34.703125 46.058594 34.445312 46.019531 34.152344 46.078125 C 33.75 46.15625 33.335938 46.070312 32.933594 46.066406 C 31.164062 46.066406 29.460938 46.453125 27.773438 46.925781 C 26.761719 47.214844 25.757812 47.492188 24.746094 47.789062 C 23.980469 48.015625 23.25 48.359375 22.507812 48.683594 C 21.59375 49.089844 20.6875 49.503906 19.773438 49.910156 C 18.507812 50.464844 17.21875 50.96875 16.210938 52.011719 C 15.195312 53.050781 14.484375 54.28125 14.160156 55.761719 C 13.796875 57.433594 14.101562 59.007812 14.699219 60.546875 C 15.402344 62.367188 16.382812 64.03125 17.378906 65.679688 C 18.277344 67.171875 19.242188 68.613281 20.28125 69.988281 C 20.84375 70.742188 21.398438 71.480469 21.742188 72.359375 C 22.101562 73.316406 22.285156 74.296875 21.988281 75.320312 C 21.871094 75.707031 21.664062 76.046875 21.484375 76.390625 C 21.058594 77.21875 20.523438 77.957031 19.90625 78.648438 C 19.71875 78.855469 19.613281 79.136719 19.382812 79.316406 C 19.257812 79.410156 19.148438 79.550781 18.976562 79.480469 C 18.792969 79.402344 18.765625 79.21875 18.714844 79.039062 C 18.472656 78.160156 18.316406 77.25 17.867188 76.464844 C 17.46875 75.742188 16.9375 75.105469 16.472656 74.421875 C 15.304688 72.714844 13.953125 71.144531 12.871094 69.371094 C 12.273438 68.390625 11.785156 67.351562 11.410156 66.230469 C 10.757812 64.308594 10.800781 62.378906 11.0625 60.421875 C 11.105469 60.078125 11.121094 59.742188 11.234375 59.410156 C 11.285156 59.253906 11.28125 59.019531 11.113281 58.914062 C 10.941406 58.792969 10.800781 58.953125 10.6875 59.074219 C 10.289062 59.519531 10.039062 60.070312 9.8125 60.609375 C 9.21875 62.054688 8.828125 63.5625 8.765625 65.125 C 8.722656 66.28125 8.734375 67.410156 9.019531 68.566406 C 9.582031 70.773438 10.5625 72.773438 11.425781 74.828125 C 11.941406 76.050781 12.726562 77.089844 13.394531 78.210938 C 14.019531 79.269531 14.671875 80.304688 15.238281 81.410156 C 15.730469 82.355469 15.789062 83.285156 15.59375 84.300781 C 15.441406 85.136719 15.191406 85.945312 14.769531 86.683594 C 14.324219 87.480469 14.019531 88.351562 13.613281 89.171875 C 13.523438 89.355469 13.464844 89.625 13.21875 89.601562 C 12.960938 89.589844 12.945312 89.320312 12.898438 89.117188 C 12.539062 87.464844 11.667969 86.085938 10.753906 84.726562 C 9.824219 83.355469 8.898438 81.980469 7.925781 80.636719 C 7.179688 79.601562 6.566406 78.488281 6.015625 77.335938 C 5.621094 76.519531 5.441406 75.589844 5.34375 74.667969 C 5.238281 73.707031 5.230469 72.75 5.277344 71.777344 C 5.359375 69.957031 5.6875 68.179688 6.199219 66.457031 C 6.542969 65.289062 6.859375 64.09375 7.347656 62.964844 C 7.691406 62.148438 7.917969 61.277344 8.269531 60.464844 C 8.746094 59.371094 9.3125 58.324219 9.960938 57.332031 C 10.136719 57.058594 10.328125 56.800781 10.375 56.472656 C 10.421875 56.140625 10.28125 55.96875 9.972656 55.984375 C 9.769531 56 9.546875 56.023438 9.378906 56.125 C 8.082031 56.882812 6.746094 57.5625 5.5 58.410156 C 4.890625 58.828125 4.21875 59.140625 3.632812 59.59375 C 2.847656 60.195312 2.167969 60.910156 1.515625 61.644531 C 1.183594 62.023438 0.949219 62.511719 0.789062 63.023438 C 0.730469 63.214844 0.667969 63.421875 0.507812 63.550781 C 0.324219 63.707031 0.160156 63.671875 0.128906 63.410156 C 0.015625 62.503906 -0.015625 61.59375 0.0351562 60.675781 C 0.0507812 60.242188 -0.0234375 59.804688 0.0078125 59.359375 C 0.09375 58.105469 0.398438 56.929688 0.984375 55.828125 C 1.296875 55.234375 1.769531 54.839844 2.296875 54.511719 C 3.648438 53.652344 5.085938 52.976562 6.546875 52.351562 C 7.515625 51.941406 8.480469 51.519531 9.417969 51.03125 C 10.695312 50.371094 12.03125 49.855469 13.328125 49.238281 C 14.761719 48.558594 16.234375 47.964844 17.691406 47.335938 C 19.195312 46.679688 20.710938 46.054688 22.234375 45.460938 C 23.820312 44.839844 25.421875 44.230469 27.105469 43.902344 C 28.277344 43.671875 29.445312 43.355469 30.628906 43.234375 C 31.929688 43.097656 33.230469 43.152344 34.542969 43.324219 C 35.628906 43.457031 36.640625 43.730469 37.574219 44.265625 C 38.910156 45.035156 40.109375 45.976562 40.769531 47.523438 C 41.253906 48.667969 41.457031 49.855469 41.355469 51.074219 C 41.296875 51.816406 41.007812 52.519531 40.65625 53.160156 C 39.453125 55.351562 37.558594 56.703125 35.492188 57.859375 C 34.652344 58.332031 33.824219 58.832031 32.949219 59.21875 C 32.101562 59.597656 31.234375 59.945312 30.414062 60.367188 C 29.164062 61.015625 27.75 61.425781 26.839844 62.625 C 25.941406 63.8125 25.984375 65.179688 27.355469 66.140625 C 28.605469 67.023438 30.019531 67.101562 31.472656 67.070312 C 31.960938 67.058594 32.453125 67.058594 32.9375 67.066406 C 34.808594 67.085938 36.652344 66.941406 38.496094 66.617188 C 39.523438 66.433594 40.566406 66.324219 41.59375 66.160156 C 42.085938 66.078125 42.574219 65.917969 43.054688 65.792969 C 44.105469 65.535156 45.164062 65.277344 46.210938 64.976562 C 47.804688 64.519531 49.414062 64.105469 50.941406 63.402344 C 52.476562 62.683594 53.96875 61.875 55.367188 60.910156 C 56.933594 59.828125 58.394531 58.601562 59.761719 57.234375 C 60.886719 56.109375 61.761719 54.8125 62.667969 53.503906 C 63.507812 52.300781 64.058594 50.953125 64.628906 49.617188 C 65.019531 48.714844 65.292969 47.738281 65.507812 46.773438 C 65.816406 45.375 66.15625 43.992188 66.242188 42.550781 C 66.265625 42.175781 66.1875 41.808594 66.070312 41.472656 C 65.914062 41.046875 65.5625 41.019531 65.304688 41.382812 C 65.195312 41.53125 65.136719 41.699219 65.113281 41.890625 C 64.980469 42.804688 64.683594 43.675781 64.152344 44.410156 C 63.632812 45.121094 62.949219 45.652344 62.113281 45.949219 C 61.34375 46.214844 60.574219 46.449219 59.78125 46.621094 C 59.402344 46.699219 59.011719 46.726562 58.640625 46.867188 C 58.152344 47.054688 58.089844 47.261719 58.425781 47.65625 C 58.902344 48.226562 59.511719 48.632812 60.0625 49.113281 C 60.746094 49.695312 61.535156 50.148438 62.15625 50.828125 C 62.464844 51.160156 62.464844 51.535156 62.242188 51.949219 C 61.132812 53.96875 59.4375 55.160156 57.328125 55.714844 C 56.375 55.964844 55.398438 56.121094 54.410156 56.109375 C 53.570312 56.097656 53.070312 55.90625 53.292969 54.734375 C 53.480469 53.730469 53.632812 52.710938 54.007812 51.765625 C 54.679688 50.054688 55.398438 48.371094 56.609375 46.980469 C 56.695312 46.878906 56.769531 46.75 56.648438 46.640625 C 56.53125 46.535156 56.441406 46.664062 56.363281 46.742188 C 55.011719 48.039062 53.441406 48.960938 51.710938 49.527344 C 50.441406 49.941406 49.109375 49.964844 47.789062 49.839844 C 46.878906 49.753906 46.464844 49.253906 46.492188 48.269531 C 46.519531 47.140625 46.6875 46.023438 47.066406 44.953125 C 47.574219 43.523438 48.339844 42.273438 49.273438 41.105469 C 49.671875 40.597656 50.09375 40.121094 50.625 39.757812 C 50.777344 39.664062 50.84375 39.5 50.792969 39.339844 C 50.445312 38.214844 50.777344 37.183594 51.117188 36.136719 C 51.6875 34.367188 52.59375 32.847656 54.117188 31.824219 C 54.683594 31.441406 55.308594 31.15625 55.90625 30.832031 C 56.320312 30.597656 56.441406 30.257812 56.246094 29.804688 C 56.164062 29.601562 56.046875 29.40625 55.925781 29.226562 C 55.519531 28.640625 55.195312 28.617188 54.695312 29.128906 C 54.285156 29.550781 53.882812 29.984375 53.375 30.273438 C 52.207031 30.9375 50.996094 31.523438 49.65625 31.625 C 48.445312 31.714844 47.226562 31.59375 46.03125 31.328125 C 45.648438 31.246094 45.582031 30.855469 45.511719 30.527344 C 45.371094 29.820312 45.628906 29.175781 45.851562 28.546875 C 46.292969 27.324219 46.890625 26.195312 47.734375 25.207031 C 48.210938 24.648438 48.652344 24.09375 49.296875 23.691406 C 50.070312 23.214844 50.921875 23.066406 51.757812 22.808594 C 51.894531 22.765625 52.035156 22.746094 52.175781 22.71875 C 52.523438 22.667969 52.761719 22.519531 52.8125 22.101562 C 52.875 21.628906 52.746094 21.222656 52.433594 20.898438 C 52.269531 20.730469 52.035156 20.792969 51.828125 20.902344 C 51.238281 21.226562 50.726562 21.683594 50.085938 21.925781 C 49.484375 22.136719 48.867188 22.300781 48.246094 22.40625 C 46.398438 22.722656 44.574219 22.445312 42.777344 21.964844 C 42.269531 21.828125 42.050781 21.429688 42.109375 20.867188 C 42.183594 20.222656 42.53125 19.683594 42.753906 19.097656 C 43.179688 17.933594 43.769531 16.84375 44.519531 15.863281 C 45.90625 14.046875 47.714844 12.914062 49.894531 12.457031 C 50.226562 12.386719 50.554688 12.324219 50.886719 12.257812 C 51.269531 12.183594 51.5 11.925781 51.527344 11.535156 C 51.566406 10.9375 51.566406 10.339844 51.566406 9.738281 C 51.566406 9.519531 51.578125 9.242188 51.359375 9.136719 C 51.132812 9.023438 50.929688 9.191406 50.746094 9.332031 C 49.945312 9.9375 49.148438 10.539062 48.273438 11.027344 C 47.25 11.589844 46.238281 12.199219 45.101562 12.46875 C 43.988281 12.726562 42.890625 13.074219 41.738281 13.191406 C 41.070312 13.261719 40.402344 13.351562 39.734375 13.4375 C 39.203125 13.5 39.121094 13.6875 39.339844 14.199219 C 39.734375 15.117188 39.9375 16.113281 40.289062 17.054688 C 40.613281 17.929688 40.914062 18.824219 41.261719 19.695312 C 41.625 20.617188 41.351562 21.417969 40.355469 22.007812 C 39.464844 22.539062 38.632812 23.15625 37.683594 23.582031 C 36.527344 24.097656 35.347656 24.476562 34.109375 24.707031 C 32.964844 24.917969 31.820312 25.070312 30.671875 25.15625 C 29.710938 25.234375 28.730469 25.292969 27.765625 25.144531 C 26.839844 25.003906 26.660156 25.203125 26.871094 26.152344 C 27.027344 26.859375 27.425781 27.46875 27.636719 28.152344 C 28.195312 29.921875 28.984375 31.605469 29.5625 33.378906 C 29.761719 33.980469 29.59375 34.296875 29.113281 34.75 C 28.519531 35.308594 27.8125 35.679688 27.199219 36.1875 C 26.429688 36.820312 25.511719 37.113281 24.640625 37.496094 C 23.753906 37.890625 22.832031 38.1875 21.890625 38.398438 C 21.121094 38.558594 20.34375 38.679688 19.554688 38.742188 C 18.621094 38.820312 17.730469 38.671875 16.855469 38.417969 C 16.160156 38.21875 15.703125 38.496094 15.324219 39.042969 C 14.859375 39.707031 14.363281 40.355469 13.839844 40.972656 C 12.664062 42.355469 11.492188 43.746094 10.265625 45.097656 C 9.847656 45.558594 9.367188 45.972656 8.863281 46.347656 C 8.523438 46.59375 8.261719 46.949219 7.914062 47.210938 C 7.039062 47.886719 6.214844 48.648438 5.308594 49.285156 C 4.285156 50.007812 3.175781 50.601562 1.992188 50.996094 C 1.433594 51.179688 0.960938 51.066406 1.121094 50.214844 C 1.234375 49.609375 1.171875 48.96875 1.371094 48.371094 C 1.824219 47.003906 1.984375 45.558594 2.394531 44.191406 C 2.941406 42.355469 3.511719 40.527344 4.171875 38.738281 C 4.726562 37.242188 5.363281 35.773438 6.066406 34.347656 C 6.640625 33.175781 7.230469 32.015625 7.8125 30.847656 C 8.15625 30.164062 8.59375 29.535156 9.003906 28.894531 C 9.453125 28.203125 9.824219 27.457031 10.386719 26.851562 C 10.429688 26.808594 10.464844 26.753906 10.511719 26.710938 C 11.109375 26.121094 11.476562 26.246094 11.691406 27.078125 C 11.953125 28.039062 12.324219 28.960938 12.769531 29.84375 C 13.140625 30.589844 13.46875 31.355469 13.855469 32.085938 C 14.519531 33.320312 15.148438 34.570312 15.714844 35.851562 C 15.792969 36.03125 15.882812 36.289062 16.140625 36.269531 C 16.40625 36.25 16.457031 35.988281 16.558594 35.765625 C 17.09375 34.574219 17.664062 33.398438 18.273438 32.234375 C 19.171875 30.539062 20.382812 29.089844 21.671875 27.722656 C 22.269531 27.097656 22.976562 26.585938 23.648438 26.039062 C 24.417969 25.417969 25.265625 24.871094 25.871094 24.074219 C 26.238281 23.585938 26.445312 22.964844 26.761719 22.421875 C 27.421875 21.28125 28.171875 20.210938 29.140625 19.320312 C 29.691406 18.816406 30.148438 18.175781 30.742188 17.730469 C 31.6875 17.015625 32.574219 16.210938 33.625 15.652344 C 34.410156 15.238281 35.175781 14.78125 35.953125 14.347656 C 36.058594 14.289062 36.207031 14.234375 36.183594 14.082031 C 36.167969 13.898438 36 13.894531 35.871094 13.882812 C 34.949219 13.796875 34.023438 13.6875 33.097656 13.636719 C 31.464844 13.539062 29.832031 13.382812 28.230469 13.015625 C 27.203125 12.78125 26.203125 12.4375 25.222656 12.035156 C 25.046875 11.957031 24.882812 11.84375 24.882812 11.617188 C 24.878906 11.320312 25.027344 11.089844 25.25 10.90625 C 26.410156 9.984375 27.691406 9.246094 28.929688 8.449219 C 29.933594 7.804688 30.945312 7.160156 31.972656 6.578125 C 32.828125 6.089844 33.734375 5.710938 34.597656 5.242188 C 35.707031 4.628906 36.875 4.171875 38.046875 3.730469 C 39.207031 3.289062 40.390625 2.90625 41.582031 2.566406 C 43.535156 2.007812 45.515625 1.53125 47.515625 1.242188 C 49.152344 1.003906 50.785156 0.726562 52.457031 0.777344 C 54.015625 0.828125 55.570312 0.84375 57.078125 1.269531 C 58.472656 1.667969 59.882812 2.046875 61.152344 2.835938 C 62.90625 3.933594 63.96875 5.546875 64.605469 7.570312 C 65.234375 9.550781 65.078125 11.492188 64.601562 13.449219 "/>
</g>
</g>
</svg>
