<?xml version="1.0" encoding="UTF-8"?>
<svg xmlns="http://www.w3.org/2000/svg" xmlns:xlink="http://www.w3.org/1999/xlink" width="310pt" height="94pt" viewBox="0 0 310 94" version="1.1">
<defs>
<clipPath id="clip1">
  <path d="M 0 0.96875 L 94 0.96875 L 94 94 L 0 94 Z M 0 0.96875 "/>
</clipPath>
<clipPath id="clip2">
  <path d="M 281 50 L 309.65625 50 L 309.65625 87 L 281 87 Z M 281 50 "/>
</clipPath>
</defs>
<g id="surface1">
<g clip-path="url(#clip1)" clip-rule="nonzero">
<path style=" stroke:none;fill-rule:nonzero;fill:rgb(65.06958%,6.855774%,10.211182%);fill-opacity:1;" d="M 54.898438 3.894531 C 54.808594 3.894531 54.761719 3.976562 54.726562 4.15625 C 54.714844 4.238281 54.703125 4.320312 54.707031 4.410156 C 54.769531 5.410156 55.113281 6.328125 55.511719 7.21875 C 55.90625 8.113281 56.453125 8.917969 56.996094 9.722656 C 57.230469 10.074219 57.175781 10.417969 56.84375 10.640625 C 56.257812 11.035156 55.773438 11.554688 55.320312 12.101562 C 54.652344 12.890625 54.199219 13.839844 53.691406 14.75 C 53.304688 15.429688 52.925781 16.109375 52.652344 16.851562 C 52.214844 18.0625 51.699219 19.238281 51.085938 20.359375 C 50.90625 20.679688 50.761719 21.035156 50.484375 21.265625 C 49.835938 21.816406 49.167969 22.347656 48.289062 22.445312 C 47.832031 22.492188 47.671875 22.953125 47.933594 23.351562 C 48.007812 23.453125 48.097656 23.542969 48.171875 23.640625 C 48.417969 23.949219 48.742188 24.160156 49.054688 24.378906 C 49.78125 24.886719 50.535156 25.277344 51.390625 25.277344 C 51.632812 25.277344 51.882812 25.246094 52.144531 25.175781 C 53 24.960938 53.644531 24.53125 53.992188 23.660156 C 54.042969 23.535156 54.101562 23.371094 54.242188 23.371094 C 54.265625 23.371094 54.285156 23.375 54.308594 23.382812 C 54.488281 23.441406 54.429688 23.640625 54.40625 23.78125 C 54.335938 24.242188 54.222656 24.710938 54.175781 25.171875 C 54.066406 26.1875 54.257812 27.152344 54.601562 28.105469 C 55.101562 29.5 56.027344 30.289062 57.445312 30.445312 C 57.53125 30.457031 57.613281 30.460938 57.695312 30.460938 C 58.964844 30.460938 60.210938 29.390625 60.480469 28.144531 C 60.519531 27.953125 60.582031 27.773438 60.65625 27.589844 C 60.816406 27.164062 60.875 26.707031 60.882812 26.253906 C 60.886719 25.835938 60.886719 25.414062 61 25.007812 C 61.035156 24.890625 61.035156 24.722656 61.1875 24.71875 C 61.1875 24.71875 61.191406 24.71875 61.195312 24.71875 C 61.335938 24.71875 61.367188 24.867188 61.40625 24.984375 C 61.574219 25.488281 61.675781 26.023438 61.925781 26.496094 C 62.148438 26.9375 62.34375 27.382812 62.683594 27.746094 C 63.265625 28.371094 63.949219 28.832031 64.667969 29.238281 C 65.296875 29.605469 65.945312 29.925781 66.683594 29.925781 C 66.734375 29.925781 66.78125 29.921875 66.828125 29.921875 C 67.027344 29.902344 67.226562 29.882812 67.296875 29.644531 C 67.375 29.386719 67.398438 29.144531 67.171875 28.925781 C 66.277344 28.0625 65.734375 26.96875 65.351562 25.789062 C 64.941406 24.53125 64.886719 23.199219 64.785156 21.882812 C 64.753906 21.441406 64.742188 20.992188 64.742188 20.542969 C 64.746094 20.039062 64.75 19.523438 64.796875 19.011719 C 64.828125 18.710938 65.035156 18.503906 65.273438 18.503906 C 65.316406 18.503906 65.359375 18.511719 65.402344 18.523438 C 65.875 18.667969 66.347656 18.816406 66.785156 19.035156 C 67.78125 19.53125 68.808594 19.917969 69.894531 20.132812 C 70.019531 20.152344 70.148438 20.183594 70.273438 20.195312 C 70.488281 20.21875 70.703125 20.230469 70.914062 20.230469 C 71.496094 20.230469 72.066406 20.136719 72.605469 19.878906 C 73.386719 19.5 74.023438 18.898438 74.546875 18.183594 C 74.597656 18.117188 74.636719 18.039062 74.578125 17.953125 C 74.550781 17.914062 74.515625 17.902344 74.484375 17.902344 C 74.441406 17.902344 74.398438 17.917969 74.355469 17.933594 C 73.777344 18.144531 73.175781 18.316406 72.566406 18.316406 C 72.539062 18.316406 72.511719 18.316406 72.484375 18.3125 C 71.054688 18.277344 69.757812 17.761719 68.550781 16.980469 C 67.574219 16.339844 66.613281 15.671875 65.644531 15.015625 C 65.539062 14.945312 65.414062 14.890625 65.453125 14.734375 C 65.488281 14.59375 65.609375 14.589844 65.722656 14.574219 C 65.882812 14.554688 66.042969 14.546875 66.199219 14.546875 C 66.917969 14.546875 67.621094 14.710938 68.320312 14.875 C 68.84375 14.992188 69.375 15.046875 69.886719 15.242188 C 69.972656 15.277344 70.0625 15.285156 70.160156 15.285156 C 70.210938 15.285156 70.257812 15.28125 70.308594 15.28125 C 70.359375 15.277344 70.40625 15.277344 70.457031 15.277344 C 70.523438 15.277344 70.585938 15.277344 70.648438 15.289062 C 71.296875 15.414062 71.957031 15.503906 72.609375 15.660156 C 72.910156 15.738281 73.242188 15.824219 73.582031 15.824219 C 73.621094 15.824219 73.660156 15.824219 73.703125 15.820312 C 73.726562 15.816406 73.75 15.816406 73.773438 15.816406 C 74.164062 15.816406 74.519531 16.054688 74.910156 16.125 C 75.847656 16.292969 76.722656 16.605469 77.089844 17.6875 C 77.121094 17.777344 77.183594 17.820312 77.257812 17.820312 C 77.308594 17.820312 77.363281 17.800781 77.414062 17.769531 C 77.5625 17.683594 77.664062 17.550781 77.707031 17.382812 C 77.859375 16.773438 78.082031 16.179688 78.109375 15.542969 C 78.117188 15.214844 78.117188 14.894531 78.019531 14.570312 C 77.800781 13.851562 77.304688 13.417969 76.71875 13.019531 C 75.867188 12.433594 74.929688 12.054688 73.976562 11.710938 C 73.851562 11.667969 73.734375 11.644531 73.617188 11.644531 C 73.417969 11.644531 73.222656 11.714844 73.027344 11.863281 C 72.25 12.46875 71.476562 13.105469 70.542969 13.429688 C 70.125 13.582031 69.710938 13.652344 69.304688 13.652344 C 68.707031 13.652344 68.121094 13.496094 67.546875 13.183594 C 66.453125 12.589844 65.667969 11.664062 65.0625 10.550781 C 64.800781 10.066406 64.894531 9.808594 65.410156 9.6875 C 65.871094 9.574219 66.339844 9.53125 66.808594 9.53125 C 67.175781 9.53125 67.546875 9.558594 67.914062 9.59375 C 68.21875 9.621094 68.421875 9.828125 68.457031 10.152344 C 68.515625 10.683594 68.566406 11.21875 68.613281 11.753906 C 68.65625 12.148438 68.71875 12.535156 68.875 12.894531 C 68.9375 13.042969 69.035156 13.117188 69.148438 13.117188 C 69.214844 13.117188 69.289062 13.089844 69.367188 13.035156 C 69.488281 12.953125 69.59375 12.851562 69.691406 12.738281 C 70.167969 12.191406 70.511719 11.550781 70.863281 10.921875 C 71.019531 10.628906 71.171875 10.492188 71.394531 10.492188 C 71.496094 10.492188 71.617188 10.523438 71.757812 10.582031 C 72.027344 10.683594 72.285156 10.824219 72.542969 10.949219 C 72.621094 10.988281 72.699219 11.015625 72.777344 11.015625 C 72.84375 11.015625 72.910156 10.992188 72.976562 10.945312 C 73.109375 10.835938 73.074219 10.699219 73.054688 10.550781 C 72.953125 9.871094 72.714844 9.230469 72.421875 8.621094 C 72.179688 8.132812 71.921875 7.632812 71.464844 7.3125 C 70.746094 6.816406 69.941406 6.535156 69.09375 6.40625 C 68.367188 6.300781 67.636719 6.207031 66.90625 6.140625 C 66.382812 6.09375 65.847656 6.03125 65.320312 6.03125 C 65.160156 6.03125 65.003906 6.035156 64.84375 6.050781 C 64.671875 6.066406 64.5 6.070312 64.332031 6.070312 C 64.082031 6.070312 63.832031 6.058594 63.585938 6.046875 C 63.335938 6.035156 63.085938 6.023438 62.839844 6.023438 C 62.699219 6.023438 62.558594 6.027344 62.417969 6.035156 C 62.285156 6.046875 62.152344 6.050781 62.015625 6.050781 C 61.574219 6.050781 61.132812 6.011719 60.691406 5.992188 C 59.683594 5.957031 58.691406 5.851562 57.726562 5.484375 C 56.78125 5.121094 55.953125 4.546875 55.117188 3.988281 C 55.023438 3.925781 54.953125 3.894531 54.898438 3.894531 M 17.28125 10.886719 C 17.140625 10.886719 16.980469 10.9375 16.804688 11.046875 C 16.664062 11.128906 16.519531 11.210938 16.398438 11.316406 C 15.570312 12.09375 14.726562 12.863281 13.921875 13.667969 C 12.953125 14.636719 12.085938 15.710938 11.195312 16.753906 C 10.320312 17.78125 9.476562 18.84375 8.75 20 C 8.496094 20.398438 8.152344 20.738281 7.980469 21.1875 C 7.730469 21.84375 7.714844 22.277344 8.519531 22.332031 C 8.5625 22.335938 8.613281 22.347656 8.746094 22.371094 C 8.910156 22.421875 9.089844 22.441406 9.273438 22.441406 C 9.40625 22.441406 9.539062 22.433594 9.675781 22.421875 C 9.8125 22.414062 9.953125 22.40625 10.09375 22.40625 C 10.199219 22.40625 10.304688 22.410156 10.410156 22.425781 C 10.488281 22.433594 10.566406 22.4375 10.648438 22.4375 C 11.042969 22.4375 11.425781 22.351562 11.820312 22.328125 C 12.554688 22.28125 13.265625 22.070312 13.988281 21.949219 C 14.789062 21.804688 15.5625 21.507812 16.339844 21.234375 C 16.917969 21.03125 17.460938 20.734375 18.066406 20.613281 C 18.59375 20.507812 19.011719 20.242188 19.148438 19.644531 C 19.242188 19.246094 19.203125 18.851562 19.105469 18.472656 C 18.914062 17.730469 18.707031 16.996094 18.59375 16.242188 C 18.515625 15.6875 18.433594 15.125 18.292969 14.582031 C 18.050781 13.621094 17.949219 12.632812 17.867188 11.648438 C 17.824219 11.160156 17.609375 10.886719 17.28125 10.886719 M 31.359375 18.351562 C 31.296875 18.351562 31.234375 18.359375 31.167969 18.371094 C 30.488281 18.503906 29.921875 18.882812 29.386719 19.316406 C 29.183594 19.480469 28.992188 19.652344 28.785156 19.816406 C 27.886719 20.535156 27 21.269531 26.183594 22.089844 C 25.484375 22.796875 24.875 23.582031 24.320312 24.429688 C 23.652344 25.433594 23.222656 26.519531 22.9375 27.695312 C 22.761719 28.523438 23.027344 28.753906 23.625 28.851562 C 23.792969 28.882812 23.964844 28.894531 24.136719 28.894531 C 24.46875 28.894531 24.804688 28.851562 25.132812 28.800781 C 25.960938 28.6875 26.796875 28.59375 27.613281 28.363281 C 28.027344 28.25 28.449219 28.136719 28.847656 27.980469 C 29.488281 27.726562 30.105469 27.425781 30.71875 27.105469 C 31.777344 26.570312 32.796875 25.953125 33.710938 25.164062 C 34.136719 24.800781 34.5 24.066406 34.050781 23.316406 C 33.820312 22.929688 33.632812 22.519531 33.449219 22.105469 C 32.960938 21.003906 32.492188 19.894531 32.003906 18.800781 C 31.867188 18.496094 31.648438 18.351562 31.359375 18.351562 M 84.4375 20.800781 C 84.171875 20.800781 83.90625 20.867188 83.652344 20.984375 C 82.535156 21.496094 81.445312 22.046875 80.59375 22.996094 C 80.417969 23.191406 80.222656 23.390625 80.164062 23.660156 C 80.023438 24.28125 79.878906 24.90625 80.109375 25.550781 C 80.261719 25.984375 80.375 26.4375 80.507812 26.867188 C 80.710938 27.5625 80.902344 28.285156 80.925781 28.992188 C 80.96875 30.3125 80.527344 31.484375 79.550781 32.386719 C 78.996094 32.902344 78.40625 33.367188 77.785156 33.78125 C 77.136719 34.210938 76.5 34.671875 75.800781 35.011719 C 75.433594 35.191406 75.304688 35.542969 75.449219 35.835938 C 75.523438 35.988281 75.6875 36.070312 75.886719 36.070312 C 76.011719 36.070312 76.152344 36.035156 76.285156 35.96875 C 77.644531 35.292969 79.011719 34.628906 80.53125 34.40625 C 80.675781 34.386719 80.824219 34.375 80.96875 34.375 C 81.5625 34.375 82.109375 34.570312 82.582031 35.019531 C 83.089844 35.496094 83.375 36.140625 83.675781 36.761719 C 83.929688 37.300781 84.203125 37.824219 84.597656 38.261719 C 85.074219 38.800781 85.632812 39.148438 86.335938 39.148438 C 86.390625 39.148438 86.449219 39.148438 86.507812 39.144531 C 87.332031 39.085938 88.109375 38.824219 88.84375 38.433594 C 89.269531 38.210938 89.679688 37.9375 89.996094 37.542969 C 90.570312 36.820312 90.53125 35.980469 90.324219 35.160156 C 90.132812 34.417969 89.828125 33.699219 89.570312 32.972656 C 89.53125 32.867188 89.511719 32.722656 89.375 32.722656 C 89.367188 32.722656 89.355469 32.722656 89.34375 32.722656 C 89.207031 32.746094 89.179688 32.890625 89.148438 33.015625 C 89.058594 33.429688 88.917969 33.808594 88.667969 34.160156 C 88.324219 34.660156 87.875 35.007812 87.375 35.261719 C 86.800781 35.5625 86.21875 35.78125 85.625 35.78125 C 85.207031 35.78125 84.78125 35.671875 84.347656 35.410156 C 83.769531 35.058594 83.367188 34.4375 83.507812 33.851562 C 83.765625 32.78125 84.398438 32 85.339844 31.484375 C 86.105469 31.070312 86.855469 30.632812 87.734375 30.476562 C 88.074219 30.421875 88.410156 30.367188 88.734375 30.367188 C 89.257812 30.367188 89.753906 30.503906 90.203125 30.96875 C 90.414062 31.1875 90.589844 31.4375 90.8125 31.644531 C 90.878906 31.707031 90.953125 31.75 91.035156 31.75 C 91.078125 31.75 91.121094 31.738281 91.167969 31.710938 C 91.289062 31.632812 91.292969 31.496094 91.257812 31.375 C 91.183594 31.109375 91.101562 30.855469 91.015625 30.605469 C 90.78125 29.941406 90.582031 29.273438 90.265625 28.640625 C 90.046875 28.207031 89.910156 27.71875 89.695312 27.277344 C 89.535156 26.953125 89.285156 26.730469 88.957031 26.589844 C 88.613281 26.4375 88.273438 26.378906 87.9375 26.378906 C 87.425781 26.378906 86.925781 26.519531 86.425781 26.699219 C 85.335938 27.109375 84.269531 27.5625 83.285156 28.21875 C 83.011719 28.390625 82.730469 28.554688 82.453125 28.71875 C 82.378906 28.761719 82.3125 28.78125 82.25 28.78125 C 82.136719 28.78125 82.039062 28.714844 81.960938 28.585938 C 81.769531 28.285156 81.792969 27.945312 81.84375 27.628906 C 82.0625 26.308594 82.820312 25.410156 83.898438 24.761719 C 84.386719 24.46875 84.929688 24.351562 85.460938 24.199219 C 85.648438 24.148438 85.832031 24.121094 86.019531 24.121094 C 86.28125 24.121094 86.542969 24.171875 86.804688 24.265625 C 87.160156 24.402344 87.417969 24.65625 87.6875 24.910156 C 87.789062 25 87.914062 25.148438 88.054688 25.148438 C 88.101562 25.148438 88.152344 25.132812 88.203125 25.085938 C 88.371094 24.9375 88.316406 24.683594 88.214844 24.476562 L 88.191406 24.433594 C 87.78125 23.707031 87.382812 22.980469 86.960938 22.269531 C 86.523438 21.507812 85.953125 20.925781 85.027344 20.910156 C 84.832031 20.835938 84.636719 20.800781 84.4375 20.800781 M 34.6875 25.226562 C 34.515625 25.226562 34.339844 25.3125 34.164062 25.488281 C 33.765625 25.878906 33.347656 26.25 33.0625 26.746094 C 32.921875 26.992188 32.734375 27.203125 32.578125 27.441406 C 31.980469 28.332031 31.558594 29.308594 31.3125 30.363281 C 31.179688 30.9375 31.125 31.523438 31.042969 32.109375 C 30.957031 32.703125 31.257812 33.136719 31.8125 33.242188 C 32.035156 33.28125 32.253906 33.320312 32.582031 33.375 C 32.792969 33.445312 33.011719 33.472656 33.242188 33.472656 C 33.671875 33.472656 34.128906 33.375 34.589844 33.285156 C 35.007812 33.207031 35.378906 33.015625 35.769531 32.855469 C 36.8125 32.445312 37.722656 31.824219 38.390625 30.855469 C 38.605469 30.542969 38.671875 30.203125 38.476562 29.886719 C 38.226562 29.46875 38.003906 29.007812 37.632812 28.699219 C 37.292969 28.429688 37.058594 28.101562 36.816406 27.746094 C 36.339844 27.082031 35.855469 26.421875 35.402344 25.738281 C 35.175781 25.398438 34.933594 25.226562 34.6875 25.226562 M 76.320312 27.671875 C 76.277344 27.671875 76.230469 27.679688 76.1875 27.695312 C 75.667969 27.878906 75.140625 28.058594 74.632812 28.285156 C 73.992188 28.574219 73.421875 29 72.824219 29.371094 C 72.027344 29.875 71.253906 30.417969 70.59375 31.113281 C 69.992188 31.75 69.460938 32.449219 69.195312 33.320312 C 69.023438 33.878906 68.976562 34.46875 68.898438 35.050781 C 68.785156 35.871094 68.871094 36.660156 69.21875 37.390625 C 69.445312 37.859375 69.664062 38.132812 69.988281 38.132812 C 70.179688 38.132812 70.410156 38.035156 70.695312 37.824219 C 71.300781 37.390625 71.914062 36.949219 72.535156 36.53125 C 73.425781 35.917969 74.289062 35.269531 75.066406 34.5 C 75.925781 33.652344 76.5 32.632812 76.714844 31.476562 C 76.734375 31.164062 76.78125 30.925781 76.777344 30.679688 C 76.757812 30.027344 76.761719 29.371094 76.726562 28.714844 C 76.714844 28.433594 76.65625 28.167969 76.59375 27.902344 C 76.558594 27.738281 76.445312 27.671875 76.320312 27.671875 M 77.648438 36.964844 C 77.292969 36.976562 76.925781 36.941406 76.5625 37.035156 C 75.917969 37.1875 75.3125 37.449219 74.695312 37.691406 C 73.453125 38.179688 72.195312 38.632812 70.941406 39.097656 C 70.585938 39.230469 70.367188 39.507812 70.449219 39.800781 C 70.5 40 70.554688 40.199219 70.660156 40.386719 C 71.03125 41.042969 71.503906 41.605469 71.992188 42.160156 C 72.90625 43.195312 74.070312 43.707031 75.332031 43.964844 C 75.566406 44.011719 75.800781 44.03125 76.039062 44.03125 C 76.636719 44.03125 77.234375 43.894531 77.8125 43.691406 C 78.433594 43.476562 78.996094 43.125 79.570312 42.8125 C 80.25 42.433594 80.957031 42.105469 81.5625 41.59375 C 81.777344 41.410156 81.953125 41.21875 81.8125 40.90625 C 81.625 40.496094 81.453125 40.089844 81.171875 39.730469 C 80.671875 39.101562 80.183594 38.472656 79.554688 37.976562 C 78.976562 37.515625 78.34375 37.195312 77.648438 36.964844 M 73.261719 47.9375 C 72.425781 47.9375 71.652344 48.199219 70.957031 48.726562 C 70.234375 49.277344 69.699219 50.011719 69.238281 50.8125 C 68.917969 51.375 69.050781 51.917969 69.621094 52.167969 C 70.429688 52.53125 71.230469 52.894531 72.074219 53.1875 C 73.171875 53.558594 74.308594 53.757812 75.390625 54.164062 C 75.59375 54.226562 75.792969 54.242188 75.996094 54.242188 C 76.078125 54.242188 76.160156 54.238281 76.242188 54.238281 C 76.328125 54.234375 76.410156 54.234375 76.488281 54.234375 C 76.546875 54.234375 76.605469 54.234375 76.660156 54.238281 C 76.777344 54.246094 76.894531 54.25 77.011719 54.25 C 77.777344 54.25 78.496094 54.058594 79.15625 53.542969 C 80.09375 52.808594 80.8125 51.898438 81.414062 50.859375 C 81.570312 50.585938 81.71875 50.320312 81.777344 49.992188 C 81.832031 49.652344 81.703125 49.488281 81.417969 49.429688 C 80.652344 49.273438 79.898438 49.085938 79.140625 48.90625 C 78.148438 48.675781 77.140625 48.539062 76.128906 48.375 C 75.808594 48.324219 75.527344 48.109375 75.207031 48.109375 C 75.179688 48.109375 75.15625 48.109375 75.136719 48.113281 C 75.0625 48.117188 74.992188 48.121094 74.921875 48.121094 C 74.492188 48.121094 74.078125 48 73.65625 47.957031 C 73.523438 47.945312 73.390625 47.9375 73.261719 47.9375 M 88.722656 50.257812 C 88.390625 50.257812 88.054688 50.296875 87.71875 50.375 C 86.15625 50.761719 85.296875 51.992188 84.640625 53.40625 C 84.359375 54.023438 84.082031 54.652344 83.777344 55.265625 C 83.527344 55.769531 83.121094 56.035156 82.589844 56.152344 C 82.144531 56.246094 81.699219 56.273438 81.25 56.273438 C 81.132812 56.277344 81.011719 56.300781 80.894531 56.300781 C 80.804688 56.300781 80.71875 56.285156 80.636719 56.238281 C 80.4375 56.125 80.226562 56.09375 80.015625 56.054688 C 79.476562 55.949219 78.941406 55.855469 78.410156 55.726562 C 77.988281 55.621094 77.570312 55.488281 77.167969 55.328125 C 77.011719 55.269531 76.867188 55.234375 76.742188 55.234375 C 76.550781 55.234375 76.402344 55.308594 76.308594 55.472656 C 76.136719 55.789062 76.242188 56.09375 76.613281 56.359375 C 76.683594 56.410156 76.765625 56.453125 76.84375 56.484375 C 77.5 56.738281 78.167969 56.941406 78.78125 57.292969 C 79.65625 57.800781 80.511719 58.316406 81.195312 59.105469 C 81.714844 59.699219 81.90625 60.367188 81.664062 61.15625 C 81.59375 61.402344 81.476562 61.617188 81.390625 61.855469 C 81.058594 62.742188 80.8125 63.65625 80.585938 64.578125 C 80.4375 65.179688 80.320312 65.769531 80.433594 66.414062 C 80.738281 68.148438 81.855469 69.042969 83.304688 69.640625 C 83.378906 69.667969 83.453125 69.675781 83.527344 69.675781 C 83.5625 69.675781 83.601562 69.671875 83.636719 69.671875 C 83.671875 69.667969 83.710938 69.667969 83.746094 69.667969 C 83.804688 69.667969 83.867188 69.671875 83.925781 69.6875 C 84.195312 69.769531 84.449219 69.804688 84.6875 69.804688 C 85.425781 69.804688 86.023438 69.4375 86.492188 68.722656 C 87.191406 67.644531 87.578125 66.460938 87.742188 65.175781 C 87.765625 64.996094 87.90625 64.726562 87.703125 64.625 C 87.667969 64.605469 87.636719 64.601562 87.601562 64.601562 C 87.4375 64.601562 87.296875 64.777344 87.1875 64.921875 C 86.984375 65.1875 86.722656 65.378906 86.421875 65.5 C 85.980469 65.683594 85.539062 65.761719 85.09375 65.761719 C 84.6875 65.761719 84.28125 65.695312 83.871094 65.589844 C 83.058594 65.375 82.246094 64.464844 82.1875 63.632812 C 82.0625 61.730469 83.394531 60.492188 85.035156 60.492188 C 85.128906 60.492188 85.222656 60.496094 85.3125 60.507812 C 86.1875 60.574219 86.972656 61 87.757812 61.378906 C 88.429688 61.707031 88.957031 62.1875 89.175781 62.964844 C 89.269531 63.308594 89.261719 63.664062 89.269531 64.023438 C 89.273438 64.191406 89.25 64.414062 89.460938 64.464844 C 89.484375 64.472656 89.507812 64.472656 89.53125 64.472656 C 89.6875 64.472656 89.800781 64.324219 89.882812 64.191406 C 90.019531 63.957031 90.128906 63.71875 90.246094 63.480469 C 90.722656 62.496094 91.203125 61.507812 91.308594 60.390625 C 91.347656 60.148438 91.394531 59.910156 91.417969 59.667969 C 91.460938 59.261719 91.433594 58.859375 91.316406 58.46875 C 91.070312 57.644531 90.421875 57.21875 89.746094 56.855469 C 89.074219 56.492188 88.335938 56.320312 87.625 56.070312 C 87.199219 55.917969 86.761719 55.867188 86.320312 55.867188 C 86.195312 55.867188 86.070312 55.871094 85.945312 55.878906 C 85.859375 55.882812 85.769531 55.898438 85.683594 55.898438 C 85.566406 55.898438 85.460938 55.871094 85.386719 55.757812 C 85.253906 55.554688 85.320312 55.296875 85.433594 55.105469 C 85.65625 54.730469 85.945312 54.410156 86.324219 54.203125 C 86.78125 53.953125 87.277344 53.898438 87.773438 53.898438 C 87.910156 53.898438 88.046875 53.902344 88.179688 53.910156 C 88.949219 53.941406 89.671875 54.214844 90.375 54.535156 C 91.21875 54.917969 91.796875 55.574219 91.976562 56.558594 C 92.007812 56.742188 92.027344 56.976562 92.234375 56.996094 C 92.242188 57 92.253906 57 92.261719 57 C 92.46875 57 92.480469 56.742188 92.566406 56.59375 L 92.601562 56.417969 C 92.679688 56.132812 92.757812 55.832031 92.835938 55.546875 C 93.085938 54.695312 93.105469 53.824219 92.847656 52.988281 C 92.527344 51.953125 91.796875 51.257812 90.886719 50.800781 C 90.191406 50.453125 89.464844 50.257812 88.722656 50.257812 M 68.742188 53.042969 C 68.507812 53.042969 68.320312 53.152344 68.234375 53.371094 C 68.125 53.667969 68.011719 53.964844 67.941406 54.277344 C 67.738281 55.242188 67.816406 56.207031 67.984375 57.15625 C 68.046875 57.527344 68.117188 57.910156 68.308594 58.238281 C 68.820312 59.078125 69.507812 59.738281 70.277344 60.289062 C 71.183594 60.9375 72.175781 61.429688 73.167969 61.917969 C 73.777344 62.21875 74.417969 62.425781 75.007812 62.78125 C 75.113281 62.847656 75.214844 62.878906 75.300781 62.878906 C 75.472656 62.878906 75.617188 62.761719 75.734375 62.535156 C 76.039062 61.957031 76.363281 61.378906 76.441406 60.738281 C 76.589844 59.953125 76.394531 59.238281 76.203125 58.542969 C 75.964844 57.667969 75.378906 57.007812 74.78125 56.378906 C 74.273438 55.84375 73.636719 55.496094 73.046875 55.070312 C 72.390625 54.59375 71.667969 54.246094 70.933594 53.945312 C 70.34375 53.710938 69.765625 53.445312 69.199219 53.164062 C 69.039062 53.082031 68.882812 53.042969 68.742188 53.042969 M 49.398438 62.464844 C 49.027344 62.464844 48.65625 62.480469 48.285156 62.519531 C 47.59375 62.59375 46.898438 62.664062 46.230469 62.898438 C 45.601562 63.117188 45.195312 63.636719 45.175781 64.277344 C 45.160156 64.714844 45.214844 65.144531 45.390625 65.539062 C 46.011719 66.949219 46.667969 68.351562 47.550781 69.609375 C 47.972656 70.214844 48.460938 70.785156 48.976562 71.3125 C 49.53125 71.875 50.097656 72.433594 50.726562 72.917969 C 51.089844 73.1875 51.480469 73.394531 51.859375 73.632812 C 52.617188 74.109375 53.394531 74.578125 54.234375 74.890625 C 54.816406 75.109375 55.417969 75.257812 56.03125 75.351562 C 56.417969 75.414062 56.59375 75.699219 56.445312 76.015625 C 56.238281 76.429688 56.035156 76.851562 55.78125 77.238281 C 54.847656 78.667969 53.78125 79.992188 52.589844 81.195312 C 52.109375 81.675781 51.539062 82.050781 51.089844 82.566406 C 50.519531 83.222656 50.734375 84.210938 51.519531 84.53125 C 51.601562 84.5625 51.6875 84.601562 51.761719 84.644531 C 52.535156 85.121094 53.390625 85.382812 54.230469 85.671875 C 54.757812 85.851562 55.304688 85.945312 55.84375 86.0625 C 56.234375 86.144531 56.609375 86.292969 57.027344 86.316406 C 57.550781 86.34375 58.09375 86.347656 58.597656 86.539062 C 58.953125 86.671875 59.117188 86.9375 59.03125 87.324219 C 58.949219 87.722656 58.828125 88.105469 58.46875 88.347656 C 58.34375 88.433594 58.21875 88.554688 58.246094 88.738281 C 58.277344 88.925781 58.433594 88.96875 58.582031 89.027344 C 58.859375 89.132812 59.136719 89.164062 59.414062 89.164062 C 59.765625 89.164062 60.117188 89.113281 60.464844 89.082031 C 61.527344 88.980469 61.953125 88.59375 62.40625 87.386719 C 62.558594 86.972656 62.785156 86.660156 63.226562 86.601562 C 63.535156 86.5625 63.847656 86.542969 64.164062 86.527344 C 64.167969 86.527344 64.171875 86.527344 64.175781 86.527344 C 64.574219 86.527344 64.839844 86.738281 64.980469 87.140625 C 65.207031 87.773438 65.007812 88.53125 64.496094 88.925781 C 64.359375 89.027344 64.175781 89.117188 64.226562 89.332031 C 64.277344 89.550781 64.484375 89.527344 64.644531 89.5625 C 64.769531 89.589844 64.898438 89.601562 65.023438 89.601562 C 65.113281 89.601562 65.207031 89.59375 65.296875 89.589844 C 65.390625 89.585938 65.484375 89.582031 65.574219 89.582031 C 65.625 89.582031 65.671875 89.582031 65.722656 89.585938 C 65.78125 89.589844 65.84375 89.59375 65.90625 89.59375 C 67.3125 89.59375 68.777344 88.351562 68.441406 86.628906 C 68.375 86.28125 68.484375 86.007812 68.753906 85.859375 C 69.003906 85.722656 69.273438 85.566406 69.554688 85.566406 C 69.679688 85.566406 69.804688 85.597656 69.933594 85.671875 C 70.339844 85.90625 70.59375 86.289062 70.652344 86.785156 C 70.722656 87.390625 70.640625 87.976562 70.296875 88.492188 C 70.222656 88.605469 70.15625 88.738281 70.242188 88.867188 C 70.28125 88.929688 70.332031 88.945312 70.386719 88.945312 C 70.4375 88.945312 70.496094 88.929688 70.550781 88.921875 C 70.90625 88.875 71.234375 88.753906 71.566406 88.625 C 72.46875 88.285156 73.191406 87.75 73.597656 86.796875 C 73.910156 86.058594 73.964844 85.3125 73.738281 84.53125 C 73.675781 84.308594 73.648438 84.082031 73.828125 83.890625 C 73.996094 83.703125 74.265625 83.609375 74.527344 83.609375 C 74.734375 83.609375 74.933594 83.667969 75.085938 83.792969 C 75.507812 84.136719 75.644531 84.628906 75.621094 85.15625 C 75.601562 85.597656 75.550781 86.046875 75.339844 86.453125 C 75.285156 86.5625 75.285156 86.699219 75.382812 86.808594 C 75.425781 86.855469 75.472656 86.871094 75.519531 86.871094 C 75.578125 86.871094 75.636719 86.847656 75.695312 86.824219 C 76.046875 86.683594 76.300781 86.394531 76.617188 86.179688 C 77.546875 85.539062 78.097656 84.636719 78.28125 83.46875 C 78.386719 82.804688 78.296875 82.140625 78.394531 81.476562 C 78.433594 81.199219 78.320312 80.914062 78.101562 80.703125 C 77.816406 80.4375 77.492188 80.222656 77.148438 80.035156 C 76.359375 79.621094 75.679688 78.980469 74.804688 78.730469 C 74.601562 78.671875 74.394531 78.640625 74.1875 78.640625 C 73.921875 78.640625 73.65625 78.695312 73.402344 78.816406 C 72.851562 79.085938 72.324219 79.414062 71.792969 79.722656 C 71.242188 80.046875 70.652344 80.289062 70.078125 80.570312 C 69.316406 80.945312 68.566406 81.355469 67.773438 81.648438 C 66.460938 82.125 65.152344 82.640625 63.765625 82.863281 C 63.171875 82.957031 62.589844 83.117188 61.992188 83.164062 C 61.195312 83.234375 60.40625 83.351562 59.601562 83.363281 C 59.585938 83.363281 59.570312 83.363281 59.550781 83.363281 C 58.871094 83.363281 58.214844 83.257812 57.550781 83.128906 C 57.417969 83.101562 57.28125 83.042969 57.269531 82.867188 C 57.257812 82.671875 57.382812 82.566406 57.523438 82.503906 C 58.667969 81.945312 59.75 81.300781 60.769531 80.511719 C 62.160156 79.441406 63.507812 78.339844 64.691406 77.023438 C 65.113281 76.550781 65.566406 76.105469 65.96875 75.613281 C 67.15625 74.164062 68.007812 72.492188 68.773438 70.777344 C 69.070312 70.109375 68.984375 69.796875 68.394531 69.382812 C 68.289062 69.3125 68.195312 69.222656 68.089844 69.148438 C 66.9375 68.324219 65.722656 67.625 64.5 66.945312 C 63.539062 66.417969 62.550781 65.941406 61.542969 65.511719 C 60.722656 65.167969 59.890625 64.867188 59.046875 64.601562 C 58.019531 64.265625 57 63.890625 55.972656 63.546875 C 54.835938 63.167969 53.660156 62.992188 52.589844 62.757812 C 51.492188 62.59375 50.4375 62.464844 49.398438 62.464844 M 41.132812 31.613281 C 41.679688 31.613281 42.195312 31.4375 42.707031 31.25 C 43.351562 31.015625 43.9375 30.699219 44.472656 30.246094 C 45.019531 29.78125 45.484375 29.25 45.78125 28.566406 C 45.882812 28.324219 46.003906 28.105469 46.28125 28.105469 C 46.289062 28.105469 46.296875 28.105469 46.304688 28.105469 C 46.503906 28.160156 46.648438 28.285156 46.773438 28.429688 C 46.867188 28.535156 46.933594 28.683594 47.035156 28.785156 C 47.351562 29.132812 47.398438 29.316406 46.855469 29.667969 C 46.527344 29.890625 46.15625 30.046875 45.824219 30.265625 C 45.296875 30.605469 45.015625 31.15625 44.734375 31.707031 C 44.476562 32.210938 44.371094 32.746094 44.289062 33.296875 C 44.183594 33.976562 44.09375 34.648438 43.976562 35.320312 C 43.949219 35.503906 43.886719 35.59375 43.789062 35.59375 C 43.726562 35.59375 43.648438 35.554688 43.558594 35.480469 C 43.015625 35.035156 42.488281 34.574219 42.007812 34.054688 C 41.558594 33.570312 41.03125 33.179688 40.59375 32.683594 C 40.417969 32.476562 40.246094 32.265625 40.078125 32.050781 C 39.910156 31.84375 39.984375 31.695312 40.21875 31.65625 C 40.433594 31.625 40.652344 31.609375 40.871094 31.609375 C 40.929688 31.609375 40.992188 31.609375 41.054688 31.613281 C 41.082031 31.613281 41.105469 31.613281 41.132812 31.613281 M 40.21875 0.96875 C 39.847656 0.96875 39.476562 0.976562 39.105469 0.980469 C 37.796875 0.996094 36.53125 1.269531 35.257812 1.515625 C 33.699219 1.8125 32.167969 2.257812 30.65625 2.765625 C 29.738281 3.074219 28.820312 3.417969 27.929688 3.800781 C 27.023438 4.1875 26.125 4.589844 25.277344 5.105469 C 24.617188 5.503906 23.921875 5.835938 23.269531 6.246094 C 22.484375 6.738281 21.714844 7.277344 20.953125 7.820312 C 20.007812 8.488281 19.03125 9.113281 18.152344 9.875 C 17.984375 10.027344 17.875 10.210938 17.890625 10.441406 C 17.898438 10.621094 18.027344 10.703125 18.167969 10.757812 C 18.945312 11.039062 19.742188 11.273438 20.554688 11.421875 C 21.820312 11.652344 23.101562 11.71875 24.382812 11.730469 C 25.109375 11.738281 25.835938 11.792969 26.5625 11.828125 C 26.664062 11.832031 26.792969 11.828125 26.8125 11.972656 C 26.835938 12.09375 26.722656 12.140625 26.640625 12.191406 C 26.046875 12.558594 25.464844 12.941406 24.863281 13.292969 C 24.058594 13.765625 23.390625 14.429688 22.675781 15.019531 C 22.222656 15.394531 21.886719 15.910156 21.472656 16.324219 C 20.746094 17.058594 20.195312 17.921875 19.714844 18.839844 C 19.488281 19.273438 19.34375 19.765625 19.074219 20.160156 C 18.625 20.808594 17.980469 21.265625 17.398438 21.78125 C 16.890625 22.230469 16.355469 22.65625 15.910156 23.167969 C 14.945312 24.285156 14.042969 25.460938 13.398438 26.824219 C 12.960938 27.753906 12.554688 28.695312 12.171875 29.648438 C 12.101562 29.824219 12.070312 30.03125 11.859375 30.054688 C 11.847656 30.058594 11.839844 30.058594 11.828125 30.058594 C 11.652344 30.058594 11.578125 29.875 11.515625 29.746094 C 11.027344 28.761719 10.496094 27.804688 9.933594 26.863281 C 9.609375 26.304688 9.328125 25.714844 9.011719 25.144531 C 8.632812 24.46875 8.3125 23.761719 8.078125 23.015625 C 7.964844 22.648438 7.820312 22.464844 7.632812 22.464844 C 7.496094 22.464844 7.332031 22.566406 7.140625 22.769531 L 7.046875 22.886719 C 6.628906 23.378906 6.363281 23.976562 6.035156 24.53125 C 5.734375 25.050781 5.414062 25.558594 5.167969 26.105469 C 4.75 27.039062 4.328125 27.972656 3.914062 28.90625 C 3.410156 30.050781 2.964844 31.222656 2.578125 32.414062 C 2.121094 33.839844 1.734375 35.289062 1.367188 36.746094 C 1.09375 37.832031 1.011719 38.96875 0.703125 40.054688 C 0.570312 40.527344 0.636719 41.03125 0.570312 41.507812 C 0.5 41.988281 0.671875 42.164062 0.929688 42.164062 C 1.035156 42.164062 1.152344 42.136719 1.277344 42.085938 C 2.191406 41.738281 3.039062 41.234375 3.816406 40.632812 C 4.503906 40.101562 5.125 39.476562 5.789062 38.914062 C 6.050781 38.699219 6.242188 38.410156 6.5 38.207031 C 6.882812 37.894531 7.246094 37.550781 7.554688 37.175781 C 8.472656 36.074219 9.34375 34.945312 10.21875 33.820312 C 10.609375 33.320312 10.972656 32.792969 11.316406 32.257812 C 11.542969 31.898438 11.816406 31.675781 12.207031 31.675781 C 12.296875 31.675781 12.390625 31.6875 12.496094 31.710938 C 12.988281 31.832031 13.488281 31.910156 13.996094 31.910156 C 14.203125 31.910156 14.40625 31.898438 14.617188 31.871094 C 15.230469 31.792969 15.835938 31.671875 16.429688 31.519531 C 17.164062 31.320312 17.871094 31.050781 18.554688 30.714844 C 19.222656 30.382812 19.929688 30.121094 20.511719 29.601562 C 20.976562 29.179688 21.515625 28.863281 21.964844 28.40625 C 22.324219 28.035156 22.445312 27.78125 22.269531 27.316406 C 21.757812 25.949219 21.082031 24.660156 20.589844 23.289062 C 20.402344 22.761719 20.070312 22.300781 19.921875 21.753906 C 19.757812 21.125 19.828125 20.914062 20.304688 20.914062 C 20.390625 20.914062 20.484375 20.921875 20.589844 20.933594 C 20.8125 20.957031 21.03125 20.96875 21.253906 20.96875 C 21.792969 20.96875 22.332031 20.90625 22.867188 20.839844 C 23.761719 20.730469 24.652344 20.570312 25.539062 20.367188 C 26.5 20.144531 27.410156 19.800781 28.296875 19.359375 C 29.027344 18.988281 29.660156 18.476562 30.339844 18.03125 C 31.097656 17.53125 31.285156 16.894531 30.96875 16.1875 C 30.671875 15.519531 30.40625 14.828125 30.121094 14.15625 C 29.816406 13.429688 29.625 12.65625 29.285156 11.953125 C 29.097656 11.5625 29.15625 11.410156 29.570312 11.34375 C 30.089844 11.253906 30.609375 11.15625 31.132812 11.082031 C 32.027344 10.945312 32.875 10.632812 33.738281 10.390625 C 34.621094 10.140625 35.390625 9.628906 36.171875 9.152344 C 36.839844 8.742188 37.445312 8.238281 38.050781 7.738281 C 38.160156 7.644531 38.28125 7.539062 38.417969 7.539062 C 38.449219 7.539062 38.488281 7.546875 38.523438 7.5625 C 38.699219 7.636719 38.699219 7.855469 38.707031 8.027344 C 38.726562 8.496094 38.746094 8.96875 38.734375 9.433594 C 38.726562 9.742188 38.554688 9.953125 38.257812 10.023438 C 38 10.085938 37.742188 10.144531 37.488281 10.214844 C 35.796875 10.648438 34.421875 11.601562 33.394531 13.074219 C 32.839844 13.863281 32.414062 14.742188 32.117188 15.667969 C 31.964844 16.132812 31.710938 16.566406 31.675781 17.074219 C 31.644531 17.515625 31.832031 17.820312 32.234375 17.910156 C 33.105469 18.105469 33.984375 18.234375 34.863281 18.234375 C 35.417969 18.234375 35.972656 18.183594 36.527344 18.0625 C 37.007812 17.957031 37.484375 17.808594 37.949219 17.621094 C 38.441406 17.410156 38.828125 17.03125 39.28125 16.757812 C 39.371094 16.703125 39.472656 16.660156 39.570312 16.660156 C 39.636719 16.660156 39.699219 16.683594 39.753906 16.730469 C 40.007812 16.976562 40.121094 17.289062 40.089844 17.664062 C 40.0625 17.992188 39.882812 18.117188 39.613281 18.167969 C 39.5 18.195312 39.394531 18.214844 39.289062 18.253906 C 38.644531 18.484375 37.980469 18.632812 37.390625 19.03125 C 36.898438 19.371094 36.574219 19.820312 36.21875 20.273438 C 35.589844 21.078125 35.160156 21.984375 34.855469 22.957031 C 34.699219 23.457031 34.523438 23.96875 34.65625 24.519531 C 34.71875 24.773438 34.785156 25.074219 35.089844 25.125 C 35.691406 25.230469 36.296875 25.289062 36.902344 25.289062 C 37.246094 25.289062 37.59375 25.273438 37.933594 25.230469 C 38.976562 25.105469 39.90625 24.601562 40.796875 24.039062 C 41.183594 23.796875 41.488281 23.441406 41.792969 23.097656 C 41.976562 22.894531 42.132812 22.789062 42.28125 22.789062 C 42.4375 22.789062 42.589844 22.902344 42.761719 23.128906 C 42.863281 23.265625 42.957031 23.414062 43.03125 23.570312 C 43.199219 23.917969 43.113281 24.191406 42.796875 24.386719 C 42.34375 24.664062 41.863281 24.90625 41.429688 25.226562 C 40.273438 26.085938 39.613281 27.308594 39.226562 28.710938 C 38.996094 29.542969 38.769531 30.363281 39.078125 31.230469 C 39.121094 31.355469 39.074219 31.484375 38.960938 31.566406 C 38.554688 31.867188 38.242188 32.257812 37.945312 32.667969 C 37.257812 33.613281 36.699219 34.621094 36.347656 35.757812 C 36.085938 36.609375 35.992188 37.488281 36.007812 38.375 C 36.019531 39.144531 36.359375 39.523438 37.074219 39.558594 C 37.269531 39.570312 37.464844 39.574219 37.660156 39.574219 C 38.503906 39.574219 39.339844 39.476562 40.132812 39.171875 C 41.46875 38.671875 42.667969 37.894531 43.683594 36.828125 C 43.726562 36.78125 43.773438 36.710938 43.835938 36.710938 C 43.855469 36.710938 43.878906 36.71875 43.902344 36.738281 C 44 36.820312 43.949219 36.921875 43.882812 37.007812 C 42.980469 38.140625 42.472656 39.484375 42.003906 40.84375 C 41.742188 41.601562 41.65625 42.402344 41.542969 43.195312 C 41.417969 44.066406 41.761719 44.234375 42.347656 44.234375 C 42.386719 44.234375 42.425781 44.234375 42.464844 44.230469 C 43.234375 44.207031 43.996094 44.050781 44.734375 43.820312 C 46.367188 43.3125 47.652344 42.320312 48.453125 40.695312 C 48.617188 40.367188 48.601562 40.074219 48.347656 39.820312 C 47.84375 39.3125 47.207031 38.988281 46.65625 38.554688 C 46.207031 38.195312 45.714844 37.902344 45.324219 37.472656 C 45.050781 37.171875 45.089844 37.011719 45.46875 36.84375 C 45.753906 36.722656 46.058594 36.6875 46.351562 36.613281 C 46.96875 36.449219 47.5625 36.238281 48.15625 36.003906 C 48.800781 35.742188 49.3125 35.300781 49.699219 34.726562 C 50.09375 34.132812 50.296875 33.441406 50.367188 32.71875 C 50.382812 32.570312 50.417969 32.4375 50.503906 32.3125 C 50.59375 32.171875 50.703125 32.101562 50.808594 32.101562 C 50.921875 32.101562 51.03125 32.1875 51.101562 32.359375 C 51.207031 32.617188 51.277344 32.902344 51.273438 33.199219 C 51.257812 34.328125 51.03125 35.425781 50.839844 36.527344 C 50.703125 37.289062 50.519531 38.066406 50.246094 38.785156 C 49.839844 39.851562 49.453125 40.925781 48.839844 41.902344 C 48.171875 42.957031 47.53125 44.003906 46.6875 44.921875 C 45.660156 46.039062 44.5625 47.054688 43.371094 47.957031 C 42.304688 48.761719 41.167969 49.449219 39.988281 50.066406 C 38.816406 50.671875 37.570312 51.050781 36.339844 51.46875 C 35.53125 51.738281 34.714844 51.976562 33.898438 52.21875 C 33.523438 52.332031 33.148438 52.476562 32.765625 52.558594 C 31.96875 52.722656 31.15625 52.84375 30.359375 53.023438 C 28.925781 53.34375 27.488281 53.523438 26.023438 53.570312 C 25.644531 53.585938 25.257812 53.601562 24.875 53.628906 C 24.597656 53.648438 24.320312 53.660156 24.046875 53.660156 C 23.203125 53.660156 22.386719 53.535156 21.625 53.042969 C 20.519531 52.34375 20.441406 51.273438 21.105469 50.3125 C 21.777344 49.339844 22.871094 48.96875 23.828125 48.417969 C 24.457031 48.058594 25.121094 47.757812 25.773438 47.425781 C 26.445312 47.09375 27.074219 46.675781 27.71875 46.273438 C 29.296875 45.292969 30.734375 44.171875 31.601562 42.410156 C 31.859375 41.898438 32.058594 41.335938 32.082031 40.753906 C 32.117188 39.796875 31.921875 38.871094 31.503906 37.992188 C 30.9375 36.804688 29.96875 36.113281 28.898438 35.554688 C 28.148438 35.167969 27.347656 34.992188 26.496094 34.925781 C 26.058594 34.890625 25.621094 34.867188 25.1875 34.867188 C 24.597656 34.867188 24.015625 34.90625 23.429688 34.996094 C 22.507812 35.132812 21.601562 35.421875 20.695312 35.644531 C 19.390625 35.960938 18.15625 36.492188 16.933594 37.035156 C 15.761719 37.554688 14.597656 38.097656 13.441406 38.664062 C 12.324219 39.207031 11.1875 39.726562 10.089844 40.308594 C 9.09375 40.839844 8.070312 41.292969 7.089844 41.851562 C 6.371094 42.269531 5.628906 42.632812 4.886719 42.988281 C 3.765625 43.53125 2.660156 44.109375 1.632812 44.832031 C 1.230469 45.105469 0.871094 45.433594 0.648438 45.90625 C 0.226562 46.789062 0.0273438 47.71875 0 48.707031 C -0.0078125 49.058594 0.0625 49.398438 0.0664062 49.738281 C 0.0546875 50.457031 0.109375 51.167969 0.230469 51.871094 C 0.25 51.992188 0.304688 52.050781 0.371094 52.050781 C 0.417969 52.050781 0.472656 52.023438 0.53125 51.972656 C 0.652344 51.863281 0.695312 51.699219 0.734375 51.550781 C 0.839844 51.140625 1.007812 50.75 1.253906 50.445312 C 1.742188 49.84375 2.25 49.261719 2.84375 48.761719 C 3.289062 48.386719 3.804688 48.117188 4.269531 47.769531 C 5.214844 47.058594 6.238281 46.480469 7.226562 45.84375 C 7.355469 45.757812 7.53125 45.730469 7.683594 45.710938 C 7.703125 45.707031 7.71875 45.707031 7.738281 45.707031 C 7.945312 45.707031 8.042969 45.835938 8.015625 46.082031 C 7.992188 46.339844 7.851562 46.546875 7.722656 46.765625 C 7.25 47.566406 6.839844 48.40625 6.503906 49.28125 C 6.253906 49.929688 6.105469 50.617188 5.863281 51.269531 C 5.519531 52.167969 5.3125 53.117188 5.082031 54.042969 C 4.738281 55.410156 4.539062 56.816406 4.535156 58.242188 C 4.53125 59.007812 4.570312 59.753906 4.683594 60.507812 C 4.789062 61.222656 4.960938 61.945312 5.296875 62.570312 C 5.765625 63.449219 6.28125 64.304688 6.902344 65.085938 C 7.703125 66.101562 8.476562 67.148438 9.25 68.1875 C 10.011719 69.21875 10.734375 70.265625 11.074219 71.550781 C 11.113281 71.707031 11.136719 71.917969 11.339844 71.917969 C 11.339844 71.917969 11.34375 71.917969 11.347656 71.917969 C 11.53125 71.917969 11.570312 71.710938 11.632812 71.566406 C 11.925781 70.910156 12.132812 70.214844 12.457031 69.574219 C 12.761719 68.984375 12.929688 68.34375 13.023438 67.683594 C 13.140625 66.882812 13.066406 66.15625 12.648438 65.429688 C 12.167969 64.585938 11.621094 63.796875 11.097656 62.992188 C 10.542969 62.136719 9.890625 61.355469 9.445312 60.414062 C 8.703125 58.835938 7.871094 57.304688 7.359375 55.597656 C 7.09375 54.699219 7.050781 53.816406 7.046875 52.910156 C 7.042969 51.683594 7.296875 50.488281 7.714844 49.339844 C 7.875 48.90625 8.050781 48.46875 8.347656 48.105469 C 8.414062 48.027344 8.488281 47.9375 8.582031 47.9375 C 8.613281 47.9375 8.640625 47.945312 8.675781 47.964844 C 8.808594 48.039062 8.820312 48.222656 8.789062 48.347656 C 8.710938 48.613281 8.707031 48.878906 8.6875 49.144531 C 8.546875 50.6875 8.578125 52.199219 9.148438 53.683594 C 9.484375 54.546875 9.894531 55.34375 10.398438 56.089844 C 11.304688 57.441406 12.414062 58.621094 13.382812 59.917969 C 13.769531 60.433594 14.203125 60.917969 14.539062 61.46875 C 14.917969 62.066406 15.070312 62.773438 15.289062 63.449219 C 15.335938 63.589844 15.363281 63.734375 15.511719 63.785156 C 15.53125 63.796875 15.554688 63.800781 15.574219 63.800781 C 15.671875 63.800781 15.742188 63.710938 15.820312 63.644531 C 15.996094 63.496094 16.070312 63.273438 16.210938 63.101562 C 16.667969 62.542969 17.0625 61.941406 17.367188 61.28125 C 17.5 61.003906 17.648438 60.734375 17.726562 60.425781 C 17.925781 59.609375 17.75 58.851562 17.4375 58.113281 C 17.140625 57.4375 16.679688 56.878906 16.214844 56.3125 C 15.355469 55.273438 14.554688 54.175781 13.800781 53.039062 C 12.96875 51.78125 12.144531 50.515625 11.535156 49.117188 C 11.019531 47.933594 10.726562 46.710938 10.957031 45.390625 C 11.160156 44.21875 11.675781 43.230469 12.4375 42.378906 C 13.191406 41.523438 14.183594 41.085938 15.15625 40.609375 C 15.855469 40.257812 16.550781 39.898438 17.257812 39.546875 C 17.824219 39.269531 18.386719 38.972656 18.976562 38.769531 C 19.757812 38.5 20.535156 38.25 21.316406 37.988281 C 22.621094 37.558594 23.941406 37.195312 25.324219 37.132812 C 25.359375 37.128906 25.398438 37.128906 25.433594 37.128906 C 25.507812 37.128906 25.578125 37.132812 25.652344 37.132812 C 25.722656 37.136719 25.796875 37.140625 25.871094 37.140625 C 26.007812 37.140625 26.144531 37.132812 26.277344 37.097656 C 26.363281 37.078125 26.441406 37.066406 26.519531 37.066406 C 26.652344 37.066406 26.78125 37.097656 26.90625 37.164062 C 27.0625 37.242188 27.21875 37.289062 27.386719 37.316406 C 28.328125 37.496094 29.0625 37.988281 29.398438 38.945312 C 29.890625 40.332031 29.488281 41.53125 28.582031 42.582031 C 27.847656 43.429688 26.867188 43.902344 25.949219 44.460938 C 25.148438 44.945312 24.296875 45.347656 23.453125 45.746094 C 22.589844 46.160156 21.777344 46.664062 20.964844 47.167969 C 19.617188 48.011719 18.6875 49.191406 18.25 50.78125 C 18.011719 51.660156 18.035156 52.558594 18.375 53.386719 C 18.980469 54.835938 20.109375 55.632812 21.570312 55.929688 C 22.375 56.09375 23.1875 56.160156 24.007812 56.160156 C 24.175781 56.160156 24.339844 56.160156 24.511719 56.152344 C 24.527344 56.152344 24.542969 56.152344 24.558594 56.152344 C 25.074219 56.152344 25.203125 56.363281 25.035156 56.917969 C 24.941406 57.238281 24.796875 57.558594 24.714844 57.890625 C 24.472656 58.890625 24.339844 59.902344 24.414062 60.941406 C 24.503906 62.28125 24.835938 63.523438 25.5 64.664062 C 26.132812 65.746094 26.902344 66.699219 27.726562 67.609375 C 28.464844 68.429688 29.238281 69.210938 30.140625 69.832031 C 30.683594 70.21875 31.234375 70.597656 31.773438 70.992188 C 32.570312 71.589844 33.402344 72.132812 34.277344 72.582031 C 34.820312 72.855469 35.394531 73.070312 35.9375 73.359375 C 36.0625 73.425781 36.199219 73.480469 36.175781 73.664062 C 36.15625 73.851562 35.992188 73.871094 35.867188 73.882812 C 35.574219 73.910156 35.285156 73.949219 34.996094 73.949219 C 34.917969 73.949219 34.839844 73.945312 34.765625 73.9375 C 33.859375 73.851562 32.957031 73.726562 32.082031 73.46875 C 31.078125 73.167969 30.054688 72.925781 29.070312 72.523438 C 28.425781 72.261719 27.828125 71.910156 27.214844 71.597656 C 26.796875 71.382812 26.441406 71.035156 26.058594 70.742188 C 25.140625 70.015625 24.3125 69.179688 23.597656 68.234375 C 23.152344 67.640625 22.769531 66.996094 22.351562 66.371094 C 22.195312 66.144531 21.996094 66.050781 21.769531 66.050781 C 21.675781 66.050781 21.578125 66.066406 21.472656 66.097656 C 21.191406 66.183594 21.066406 66.402344 21.015625 66.703125 C 20.933594 67.175781 20.957031 67.648438 20.945312 68.117188 C 20.929688 69.03125 20.972656 69.945312 21.011719 70.863281 C 21.035156 71.265625 21.046875 71.683594 21.164062 72.058594 C 21.273438 72.417969 21.253906 72.777344 21.246094 73.132812 C 21.234375 73.433594 21.046875 73.585938 20.773438 73.585938 C 20.761719 73.585938 20.753906 73.582031 20.742188 73.582031 C 20.226562 73.554688 19.894531 73.273438 19.707031 72.777344 C 19.660156 72.648438 19.609375 72.476562 19.453125 72.476562 C 19.441406 72.476562 19.433594 72.476562 19.425781 72.476562 C 19.25 72.5 19.242188 72.6875 19.207031 72.832031 C 19.019531 73.652344 19.039062 74.472656 19.113281 75.292969 C 19.15625 75.734375 19.230469 76.199219 19.566406 76.523438 C 20.164062 77.105469 20.84375 77.484375 21.664062 77.605469 C 21.984375 77.652344 22.355469 77.703125 22.527344 78.039062 C 22.785156 78.542969 23.015625 79.066406 23.144531 79.625 C 23.21875 79.949219 23.070312 80.230469 22.796875 80.316406 C 22.578125 80.382812 22.3125 80.421875 22.042969 80.421875 C 21.394531 80.421875 20.695312 80.203125 20.34375 79.605469 C 20.296875 79.527344 20.226562 79.472656 20.167969 79.402344 C 20.125 79.355469 20.078125 79.316406 20.023438 79.316406 C 20.007812 79.316406 19.992188 79.320312 19.976562 79.324219 C 19.886719 79.355469 19.855469 79.4375 19.855469 79.523438 C 19.855469 79.769531 19.886719 80.011719 19.941406 80.25 C 20.1875 81.253906 20.609375 82.175781 21.078125 83.082031 C 21.238281 83.390625 21.445312 83.632812 21.765625 83.761719 C 22.386719 84.011719 23.015625 84.15625 23.65625 84.15625 C 24.003906 84.15625 24.351562 84.113281 24.707031 84.027344 C 24.78125 84.003906 24.855469 83.992188 24.929688 83.992188 C 25.09375 83.992188 25.246094 84.046875 25.390625 84.160156 C 25.734375 84.449219 26.011719 84.800781 26.246094 85.179688 C 26.503906 85.597656 26.410156 85.933594 26.007812 86.175781 C 25.585938 86.4375 25.167969 86.566406 24.753906 86.566406 C 24.25 86.566406 23.757812 86.371094 23.273438 85.984375 C 23.195312 85.925781 23.101562 85.828125 23.003906 85.828125 C 22.960938 85.828125 22.917969 85.84375 22.875 85.886719 C 22.738281 86.023438 22.8125 86.203125 22.902344 86.367188 C 23.441406 87.324219 24.175781 88.097656 24.859375 88.917969 C 25.3125 89.460938 25.855469 89.625 26.425781 89.625 C 26.660156 89.625 26.894531 89.597656 27.132812 89.558594 C 27.683594 89.46875 28.230469 89.265625 28.75 89.011719 C 28.925781 88.917969 29.101562 88.859375 29.273438 88.859375 C 29.453125 88.859375 29.632812 88.925781 29.804688 89.101562 C 30.203125 89.488281 30.636719 89.839844 31.046875 90.21875 C 31.304688 90.457031 31.339844 90.753906 31.117188 91.039062 C 30.828125 91.414062 30.441406 91.625 29.972656 91.636719 C 29.964844 91.636719 29.953125 91.636719 29.941406 91.636719 C 29.457031 91.636719 29.003906 91.4375 28.527344 91.375 C 28.46875 91.367188 28.40625 91.355469 28.34375 91.355469 C 28.261719 91.355469 28.1875 91.378906 28.144531 91.480469 C 28.0625 91.664062 28.175781 91.828125 28.3125 91.914062 C 28.847656 92.25 29.324219 92.683594 29.914062 92.929688 C 30.464844 93.160156 31.015625 93.394531 31.554688 93.644531 C 32.003906 93.847656 32.449219 94 32.910156 94 C 33.175781 94 33.445312 93.949219 33.71875 93.824219 C 34.203125 93.609375 34.699219 93.402344 35.164062 93.140625 C 35.597656 92.902344 35.910156 92.519531 36.042969 92.054688 C 36.1875 91.554688 36.339844 91.054688 36.457031 90.546875 C 36.542969 90.175781 36.628906 89.789062 36.726562 89.417969 C 36.953125 88.550781 36.796875 88.402344 36.234375 88.113281 C 35.394531 87.6875 34.554688 87.257812 33.773438 86.710938 C 32.777344 86.015625 31.792969 85.300781 30.9375 84.417969 C 30.113281 83.5625 29.277344 82.714844 28.527344 81.769531 C 27.785156 80.847656 27.097656 79.875 26.507812 78.832031 C 26.078125 78.054688 25.691406 77.261719 25.339844 76.449219 C 25.148438 75.996094 24.992188 75.523438 24.828125 75.066406 C 24.785156 74.9375 24.757812 74.78125 24.886719 74.695312 C 24.914062 74.675781 24.945312 74.664062 24.96875 74.664062 C 25.054688 74.664062 25.121094 74.75 25.179688 74.804688 C 25.535156 75.175781 25.921875 75.511719 26.226562 75.917969 C 27.355469 77.425781 28.726562 78.648438 30.207031 79.742188 C 30.984375 80.320312 31.832031 80.78125 32.675781 81.246094 C 33.28125 81.582031 33.894531 81.894531 34.535156 82.125 C 35.425781 82.449219 36.339844 82.699219 37.230469 83.035156 C 38.117188 83.375 39.050781 83.5625 39.964844 83.792969 C 41.722656 84.234375 43.519531 84.453125 45.304688 84.75 C 45.371094 84.761719 45.433594 84.765625 45.496094 84.765625 C 45.957031 84.765625 46.214844 84.445312 46.347656 83.917969 C 46.519531 83.257812 46.3125 82.605469 46.453125 81.921875 C 46.574219 81.339844 46.574219 80.683594 46.578125 80.046875 C 46.578125 78.914062 46.460938 77.796875 46.4375 76.671875 C 46.417969 75.5625 46.261719 74.464844 46.0625 73.375 C 45.785156 71.835938 45.386719 70.335938 44.851562 68.886719 C 44.339844 67.496094 43.8125 66.113281 43.074219 64.828125 C 42.617188 64.042969 42.1875 63.234375 41.542969 62.601562 C 41.074219 62.140625 40.628906 61.652344 40.21875 61.132812 C 40.011719 60.875 40.078125 60.640625 40.378906 60.539062 C 40.613281 60.460938 40.851562 60.441406 41.089844 60.441406 C 41.179688 60.441406 41.273438 60.445312 41.367188 60.449219 C 41.457031 60.449219 41.550781 60.453125 41.644531 60.453125 C 41.683594 60.453125 41.722656 60.453125 41.765625 60.453125 C 41.835938 60.449219 41.90625 60.449219 41.976562 60.449219 C 43.15625 60.449219 44.308594 60.679688 45.464844 60.863281 C 45.84375 60.925781 46.234375 61.03125 46.609375 61.105469 C 47.6875 61.296875 48.765625 61.535156 49.867188 61.59375 C 50.09375 61.609375 50.320312 61.613281 50.546875 61.613281 C 51.507812 61.613281 52.453125 61.503906 53.375 61.296875 C 54.480469 61.046875 55.585938 60.714844 56.574219 60.089844 C 57.207031 59.683594 57.773438 59.195312 58.316406 58.671875 C 58.882812 58.128906 59.3125 57.480469 59.6875 56.800781 C 60.023438 56.191406 60.25 55.511719 60.53125 54.875 C 60.636719 54.636719 60.78125 54.433594 61.054688 54.417969 C 61.066406 54.417969 61.078125 54.414062 61.089844 54.414062 C 61.355469 54.414062 61.5 54.621094 61.585938 54.851562 C 61.6875 55.160156 61.765625 55.480469 61.839844 55.804688 C 62.027344 56.609375 62.332031 57.332031 62.933594 57.917969 C 63.476562 58.441406 64.054688 58.917969 64.664062 59.363281 C 64.808594 59.472656 64.957031 59.53125 65.097656 59.53125 C 65.25 59.53125 65.398438 59.460938 65.53125 59.304688 C 66.015625 58.730469 66.253906 58.039062 66.214844 57.265625 C 66.1875 56.8125 66.113281 56.363281 66.074219 55.910156 C 66.003906 55.074219 66.179688 54.269531 66.359375 53.46875 C 66.640625 52.203125 67.15625 51.054688 67.777344 49.949219 C 68.082031 49.414062 68.453125 48.929688 68.8125 48.433594 C 69.417969 47.59375 70.121094 46.890625 71.074219 46.507812 C 71.589844 46.300781 72.117188 46.179688 72.632812 45.984375 C 72.78125 45.925781 72.910156 45.863281 72.964844 45.6875 C 73.085938 45.257812 72.925781 44.753906 72.617188 44.441406 C 72.273438 44.105469 71.867188 43.867188 71.503906 43.570312 C 70.429688 42.667969 69.457031 41.675781 68.738281 40.4375 C 68.054688 39.261719 67.460938 38.039062 67.148438 36.691406 C 66.816406 35.269531 66.644531 33.847656 66.855469 32.390625 C 66.964844 31.644531 66.785156 31.394531 66.09375 31.230469 C 65.359375 31.058594 64.667969 30.734375 64 30.378906 C 63.210938 29.957031 62.484375 29.4375 61.859375 28.769531 C 61.722656 28.625 61.601562 28.550781 61.496094 28.550781 C 61.351562 28.550781 61.234375 28.691406 61.148438 28.964844 C 60.816406 30.007812 60.296875 30.921875 59.613281 31.761719 C 58.917969 32.605469 58.136719 33.160156 57.066406 33.160156 C 57.042969 33.160156 57.019531 33.160156 56.992188 33.160156 C 56.332031 33.144531 55.703125 32.960938 55.25 32.441406 C 54.378906 31.4375 53.9375 30.234375 53.871094 28.882812 C 53.847656 28.417969 53.84375 27.960938 53.75 27.503906 C 53.695312 27.246094 53.585938 27.109375 53.34375 27.082031 C 53.136719 27.058594 52.933594 27.023438 52.730469 27.023438 C 52.695312 27.023438 52.65625 27.023438 52.621094 27.027344 C 52.527344 27.035156 52.4375 27.035156 52.347656 27.035156 C 51.554688 27.035156 50.804688 26.792969 50.097656 26.433594 C 48.929688 25.839844 48.058594 24.875 47.261719 23.828125 C 46.65625 23.03125 46.160156 22.171875 45.820312 21.21875 C 45.621094 20.675781 45.480469 20.121094 45.765625 19.558594 C 45.886719 19.320312 45.976562 19.066406 46.101562 18.832031 C 46.417969 18.222656 46.652344 17.5625 46.953125 16.941406 C 47.152344 16.535156 47.316406 16.121094 47.488281 15.699219 C 47.691406 15.183594 47.855469 14.644531 48.082031 14.132812 C 48.324219 13.578125 48.492188 13 48.675781 12.433594 C 48.882812 11.800781 48.925781 11.125 49.027344 10.46875 C 49.335938 8.917969 49.394531 7.394531 48.839844 5.867188 C 48.273438 4.300781 47.386719 3.082031 45.976562 2.28125 C 44.960938 1.710938 43.84375 1.464844 42.738281 1.203125 C 41.90625 1.007812 41.066406 0.96875 40.21875 0.96875 "/>
</g>
<path style=" stroke:none;fill-rule:nonzero;fill:rgb(65.06958%,6.855774%,10.211182%);fill-opacity:1;" d="M 137.871094 62.015625 L 137.066406 62.015625 C 135.410156 55.976562 132.089844 51.988281 125.460938 51.988281 C 118.347656 51.988281 113.238281 57.496094 113.238281 69.257812 C 113.238281 81.125 120.351562 84.8125 126.445312 84.8125 C 132.109375 84.8125 134.921875 82.398438 138.128906 77.746094 L 138.929688 78.28125 C 135.671875 84.269531 131.414062 87.109375 124.414062 87.109375 C 114.203125 87.109375 107.253906 79.304688 107.253906 69.308594 C 107.253906 58.832031 114.394531 50.171875 125.246094 50.171875 C 128.027344 50.171875 130.140625 50.8125 132.652344 52.042969 C 133.082031 52.257812 133.667969 52.578125 134.203125 52.578125 C 135.378906 52.578125 136.074219 51.242188 136.289062 50.117188 L 137.195312 50.117188 L 137.871094 62.015625 "/>
<path style=" stroke:none;fill-rule:nonzero;fill:rgb(65.06958%,6.855774%,10.211182%);fill-opacity:1;" d="M 156.210938 50.117188 C 145.679688 50.117188 138.890625 58.726562 138.890625 68.613281 C 138.890625 78.503906 145.679688 87.109375 156.210938 87.109375 C 166.742188 87.109375 173.53125 78.503906 173.53125 68.613281 C 173.53125 58.726562 166.742188 50.117188 156.210938 50.117188 M 156.210938 85.1875 C 147.445312 85.1875 144.878906 76.578125 144.878906 68.613281 C 144.878906 60.648438 147.445312 52.042969 156.210938 52.042969 C 164.976562 52.042969 167.542969 60.648438 167.542969 68.613281 C 167.542969 76.578125 164.976562 85.1875 156.210938 85.1875 "/>
<path style=" stroke:none;fill-rule:nonzero;fill:rgb(65.06958%,6.855774%,10.211182%);fill-opacity:1;" d="M 176.621094 56.535156 C 176.621094 52.738281 175.285156 51.828125 171.652344 51.828125 L 171.652344 50.921875 L 186.671875 50.921875 L 186.671875 51.828125 C 183.039062 51.828125 181.699219 52.738281 181.699219 56.535156 L 181.699219 81.871094 C 181.699219 83.371094 182.554688 84.542969 183.734375 84.542969 L 185.613281 84.542969 C 191.601562 84.542969 194.808594 81.015625 196.25 76.417969 L 197.265625 76.6875 L 194.21875 86.308594 L 171.652344 86.308594 L 171.652344 85.347656 C 175.285156 85.347656 176.621094 84.492188 176.621094 80.695312 L 176.621094 56.535156 "/>
<path style=" stroke:none;fill-rule:nonzero;fill:rgb(65.06958%,6.855774%,10.211182%);fill-opacity:1;" d="M 201.308594 56.535156 C 201.308594 52.738281 199.96875 51.828125 196.335938 51.828125 L 196.335938 50.921875 L 211.355469 50.921875 L 211.355469 51.828125 C 207.722656 51.828125 206.386719 52.738281 206.386719 56.535156 L 206.386719 81.871094 C 206.386719 83.371094 207.242188 84.542969 208.414062 84.542969 L 210.296875 84.542969 C 216.285156 84.542969 219.492188 81.015625 220.933594 76.417969 L 221.949219 76.6875 L 218.902344 86.308594 L 196.335938 86.308594 L 196.335938 85.347656 C 199.96875 85.347656 201.308594 84.492188 201.308594 80.695312 L 201.308594 56.535156 "/>
<path style=" stroke:none;fill-rule:nonzero;fill:rgb(65.06958%,6.855774%,10.211182%);fill-opacity:1;" d="M 220.914062 86.308594 L 245.273438 86.308594 L 248.300781 76.496094 L 247.070312 76.496094 C 245.625 81.039062 242.761719 84.546875 237.738281 84.546875 L 233.046875 84.546875 C 231.816406 84.546875 231.015625 83.582031 230.964844 82.351562 L 230.964844 67.867188 L 236.894531 67.867188 C 239.730469 67.867188 241.824219 69.308594 241.824219 73.480469 L 242.785156 73.480469 L 242.785156 61.503906 L 241.824219 61.503906 C 241.824219 64.925781 239.730469 66.101562 236.789062 66.101562 L 230.964844 66.101562 L 230.964844 52.683594 L 238.070312 52.683594 C 242.777344 52.683594 244.28125 54.984375 245.136719 59.3125 L 246.046875 59.3125 L 245.617188 50.921875 L 220.914062 50.921875 L 220.914062 51.828125 C 224.546875 51.828125 225.9375 52.738281 225.9375 56.535156 L 225.9375 80.695312 C 225.9375 84.4375 224.546875 85.347656 220.914062 85.347656 L 220.914062 86.308594 "/>
<path style=" stroke:none;fill-rule:nonzero;fill:rgb(65.06958%,6.855774%,10.211182%);fill-opacity:1;" d="M 280.199219 84.011719 C 276.511719 86.042969 272.285156 87.109375 268.011719 87.109375 C 252.347656 87.109375 248.285156 75.511719 248.285156 69.203125 C 248.285156 60.96875 254.324219 50.121094 266.992188 50.121094 C 269.613281 50.121094 271.59375 50.601562 273.570312 51.292969 C 274.371094 51.5625 276.191406 52.363281 276.886719 52.363281 C 278.0625 52.363281 278.167969 51.027344 278.222656 50.121094 L 279.183594 50.121094 L 280.09375 61.292969 L 279.128906 61.292969 C 277.367188 55.410156 273.621094 51.9375 267.316406 51.9375 C 258.335938 51.9375 254.273438 60.007812 254.273438 68.027344 C 254.273438 78.238281 259.9375 85.292969 268.011719 85.292969 C 270.257812 85.292969 273.089844 84.707031 275.171875 83.371094 L 275.171875 73.800781 C 275.171875 69.308594 275.433594 67.972656 270.40625 67.972656 L 270.40625 67.011719 L 283.949219 67.011719 L 283.949219 67.972656 C 280.527344 67.972656 280.199219 69.203125 280.199219 72.945312 L 280.199219 84.011719 "/>
<g clip-path="url(#clip2)" clip-rule="nonzero">
<path style=" stroke:none;fill-rule:nonzero;fill:rgb(65.06958%,6.855774%,10.211182%);fill-opacity:1;" d="M 281.882812 86.308594 L 306.503906 86.308594 L 309.65625 76.367188 L 308.425781 76.367188 C 306.984375 80.910156 303.988281 84.546875 298.964844 84.546875 L 294.015625 84.546875 C 292.789062 84.546875 291.984375 83.582031 291.933594 82.351562 L 291.933594 67.867188 L 297.863281 67.867188 C 300.699219 67.867188 303.050781 69.308594 303.050781 73.480469 L 304.011719 73.480469 L 304.011719 61.503906 L 303.050781 61.503906 C 303.050781 64.925781 300.699219 66.101562 297.757812 66.101562 L 291.933594 66.101562 L 291.933594 52.683594 L 299.039062 52.683594 C 303.746094 52.683594 305.507812 54.984375 306.363281 59.3125 L 307.273438 59.3125 L 306.847656 50.921875 L 281.882812 50.921875 L 281.882812 51.828125 C 285.515625 51.828125 286.90625 52.738281 286.90625 56.535156 L 286.90625 80.695312 C 286.90625 84.4375 285.515625 85.347656 281.882812 85.347656 L 281.882812 86.308594 "/>
</g>
<path style=" stroke:none;fill-rule:nonzero;fill:rgb(65.06958%,6.855774%,10.211182%);fill-opacity:1;" d="M 131.929688 43.691406 C 127.664062 35.921875 126.113281 26.859375 120.664062 26.859375 L 117.953125 26.859375 L 117.953125 38.027344 C 117.953125 41.804688 119.355469 42.71875 122.972656 42.71875 L 122.972656 43.691406 L 107.757812 43.691406 L 107.757812 42.71875 C 111.425781 42.71875 112.773438 41.804688 112.773438 38.027344 L 112.773438 13.640625 C 112.773438 9.863281 111.425781 8.949219 107.757812 8.949219 L 107.757812 7.976562 L 124.414062 7.976562 C 132.238281 7.976562 136.960938 11.804688 136.960938 17.257812 C 136.960938 21.734375 134.367188 25.511719 129.296875 26.804688 C 131.835938 29.070312 133.34375 33.011719 135.070312 36.351562 C 136.742188 39.753906 137.820312 42.613281 141.003906 42.71875 C 143.917969 42.773438 145.429688 41.695312 145.269531 37.972656 L 145.269531 13.640625 C 145.269531 9.863281 143.917969 8.894531 140.195312 8.894531 L 140.195312 7.976562 L 165.28125 7.976562 L 165.714844 16.445312 L 164.851562 16.445312 C 163.988281 12.078125 162.152344 9.757812 157.515625 9.757812 L 150.285156 9.757812 L 150.285156 23.296875 L 156.164062 23.296875 C 159.078125 23.296875 161.507812 22.058594 161.507812 18.714844 L 162.476562 18.714844 L 162.476562 30.742188 L 161.507812 30.742188 C 161.507812 26.480469 159.132812 25.078125 156.273438 25.078125 L 150.285156 25.078125 L 150.285156 39.699219 C 150.339844 40.832031 151.148438 41.859375 152.335938 41.859375 L 157.570312 41.859375 C 162.585938 41.859375 165.605469 38.1875 167.011719 33.601562 L 168.25 33.601562 L 164.960938 43.691406 Z M 117.953125 25.078125 L 122.394531 25.078125 C 127.570312 25.078125 131.078125 22.164062 131.078125 17.472656 C 131.078125 15.3125 130.429688 13.476562 129.136719 12.023438 C 127.894531 10.621094 126.386719 9.917969 123.578125 9.757812 C 122.070312 9.648438 118.816406 9.863281 117.953125 10.242188 Z M 167.0625 43.691406 L 192.042969 43.691406 L 195.226562 33.65625 L 193.984375 33.65625 C 192.527344 38.242188 189.507812 41.910156 184.4375 41.910156 L 179.308594 41.910156 C 178.070312 41.910156 177.261719 40.941406 177.203125 39.699219 L 177.203125 25.078125 L 183.195312 25.078125 C 186.054688 25.078125 188.429688 26.535156 188.429688 30.742188 L 189.398438 30.742188 L 189.398438 18.660156 L 188.429688 18.660156 C 188.429688 22.113281 186.054688 23.296875 183.085938 23.296875 L 177.203125 23.296875 L 177.203125 9.757812 L 184.382812 9.757812 C 189.128906 9.757812 190.910156 12.078125 191.773438 16.445312 L 192.691406 16.445312 L 192.257812 7.976562 L 167.0625 7.976562 L 167.0625 8.894531 C 170.730469 8.894531 172.136719 9.808594 172.136719 13.640625 L 172.136719 38.027344 C 172.136719 41.804688 170.730469 42.71875 167.0625 42.71875 Z M 199.21875 14.828125 C 199.21875 10.296875 199.21875 8.949219 194.148438 8.949219 L 194.148438 7.976562 L 207.957031 7.976562 C 212.867188 7.976562 218.695312 8.140625 222.902344 10.945312 C 227.8125 14.234375 230.078125 19.898438 230.078125 25.671875 C 230.078125 35.4375 223.710938 43.691406 210.765625 43.691406 L 194.148438 43.691406 L 194.148438 42.71875 C 199.21875 42.71875 199.21875 41.371094 199.21875 36.839844 Z M 204.289062 41.046875 C 206.121094 41.480469 208.011719 41.75 209.902344 41.75 C 219.125 41.75 224.035156 34.464844 224.035156 25.832031 C 224.035156 16.984375 219.074219 9.917969 209.683594 9.917969 C 207.851562 9.917969 206.015625 10.1875 204.289062 10.671875 L 204.289062 41.046875 "/>
</g>
</svg>
