<svg version="1.1" viewBox="0 0 283.46 82.75" xmlns="http://www.w3.org/2000/svg" xmlns:xlink="http://www.w3.org/1999/xlink" overflow="hidden">
<defs>
</defs>
<g id="Calque_2">
<g id="Calque_1-2">
<path d=" M 56.72 10.71 C 60.8992 8.16701 64.7454 5.11351 68.17 1.62 C 70.97 -1.22 58.65 0.05 55.68 2.62 C 52.2819 5.44609 49.1152 8.53927 46.21 11.87 C 44.46 13.88 52.88 13 56.72 10.71 Z M 282.06 74.64 C 284.25 75.96 284.16 69.11 279.75 66.36 C 263.96 56.53 220.75 73.67 204.4 75.62 C 201.33 75.99 200.21 75.21 200.94 73.13 C 202.33 69.13 207.8 61.73 208.94 59.19 C 210.08 56.65 209.84 48.41 197.49 48.41 C 187.4 48.41 178.15 53.1 171.64 59 C 165.44 64.28 153.43 74.74 146.04 74.74 C 138.38 74.74 160.8 51.62 162.04 50.45 C 165.37 47.32 154.86 48.1 150.45 51.45 C 148.69 52.79 141.64 60.33 137.23 67.63 C 124.49 76.44 111.8 78.48 117.83 71.16 C 121.04 67.25 126.48 62.02 130.21 57.88 C 135.43 52.1 134.48 48.29 122.97 48.29 C 107.56 48.29 105.92 49.63 97.23 59.82 C 95.62 61.71 96.45 66.46 98.12 64.82 C 108.55 54.5 108.31 55.34 122.12 55.34 C 119.9 57.7 115.94 60.05 109.23 68.57 C 103.23 76.17 107.16 82.31 115.66 82.31 C 120.35 82.31 127.37 80.11 133.78 75.59 C 133.01 79.59 134.6 82.39 140.65 82.39 C 147.65 82.39 155.65 78.22 162.29 73.58 C 161.46 78.58 164.05 82.39 171.46 82.39 C 177.17 82.39 183.82 80.14 190.68 74.2 C 190.68 78.74 193.85 82.35 199.82 82.35 C 214.33 82.35 264.58 64.1 282.06 74.64 Z M 175.33 75.84 C 165.79 75.84 184.9 54.04 197.33 54.04 C 204.79 54 184.53 75.84 175.33 75.84 Z M 167.77 42.12 C 173.044 38.7272 177.98 34.836 182.51 30.5 C 185.31 27.65 172.99 28.92 170.02 31.45 C 165.947 34.908 162.106 38.6293 158.52 42.59 C 156.77 44.64 163.92 44.43 167.77 42.12 Z M 92.45 65.34 C 88.72 69 80.54 75.1 73.39 75.1 C 68.1 75.1 78.63 65.62 83.85 57.99 C 88.85 50.69 84.76 48.51 80.65 48.51 C 70.47 48.51 60.52 55.65 53.78 60.68 C 55.82 58 59 54.45 62.37 50 C 64.24 47.52 53.02 48.41 50.15 52.19 C 49.23 53.39 48.22 54.73 47.15 56.19 C 37.41 67.87 22.69 75.77 15.47 75.77 C 11.47 75.77 9.98 72.99 12.47 67.77 C 18.47 55.13 39.31 31.13 50.62 20.62 C 55.76 15.81 40.33 17.77 36.79 21.32 C 21.14 37.08 5.37 54.68 0.92 68.37 C -1.54 76 0.73 82.75 10.14 82.75 C 17.86 82.75 26.42 78.92 33.69 74.38 C 31.9 76.82 30.27 79 29 80.81 C 26.95 83.59 37.35 82.58 39.54 79.81 C 47.77 69.29 67.54 56.35 73.02 56.35 C 78.02 56.35 60.79 69.27 60.95 77.18 C 61.15 87.57 85.21 81.18 93.37 70.51 C 94.6 68.82 93.61 64.22 92.45 65.34 Z" fill="#E53516"/>
</g>
</g>
</svg>
